<?xml version="1.0" encoding="utf-8"?>
<!-- Generator: Adobe Illustrator 26.0.1, SVG Export Plug-In . SVG Version: 6.00 Build 0)  -->
<svg version="1.1" id="svg" xmlns="http://www.w3.org/2000/svg" xmlns:xlink="http://www.w3.org/1999/xlink" x="0px" y="0px"
	 viewBox="0 0 400 160" style="enable-background:new 0 0 400 160;" xml:space="preserve">
<style type="text/css">
	.st0{fill-rule:evenodd;clip-rule:evenodd;fill:#6ECEF4;}
	.st1{fill-rule:evenodd;clip-rule:evenodd;fill:#316196;}
	.st2{fill-rule:evenodd;clip-rule:evenodd;fill:#A8BCD0;}
	.st3{fill-rule:evenodd;clip-rule:evenodd;fill:#7C9AB4;}
	.st4{fill-rule:evenodd;clip-rule:evenodd;fill:#94ACBC;}
</style>
<g id="svgg">
	<path id="path0" class="st0" d="M27,0.3c0,0.2-0.2,0.3-0.4,0.3c-0.3,0-0.4,0.1-0.4,0.3c0,0.2-0.1,0.3-0.3,0.3
		c-0.2,0-0.3,0.1-0.3,0.4c0,0.3-0.1,0.4-0.4,0.4c-0.3,0-0.4,0.1-0.4,0.4c0,0.3-0.1,0.4-0.4,0.4c-0.3,0-0.4,0.1-0.4,0.4
		s-0.1,0.4-0.4,0.4c-0.3,0-0.4,0.1-0.4,0.4c0,0.3-0.1,0.4-0.4,0.4c-0.3,0-0.4,0.1-0.4,0.3c0,0.2-0.1,0.3-0.4,0.4
		c-0.2,0-0.4,0.2-0.4,0.4S21.2,6,20.9,6c-0.2,0-0.3,0.1-0.3,0.4c0,0.3-0.1,0.4-0.4,0.4c-0.3,0-0.4,0.1-0.4,0.4s-0.1,0.4-0.4,0.4
		s-0.4,0.1-0.4,0.4c0,0.3-0.1,0.4-0.4,0.4c-0.3,0-0.4,0.1-0.4,0.3c0,0.2-0.1,0.3-0.3,0.3c-0.2,0-0.3,0.1-0.3,0.4
		c0,0.3-0.1,0.4-0.4,0.4c-0.3,0-0.4,0.1-0.4,0.4c0,0.3-0.1,0.4-0.4,0.4c-0.3,0-0.4,0.1-0.4,0.4c0,0.3-0.1,0.4-0.4,0.4
		c-0.3,0-0.4,0.1-0.4,0.4c0,0.3-0.1,0.4-0.4,0.4c-0.3,0-0.4,0.1-0.4,0.3c0,0.2-0.1,0.3-0.3,0.3c-0.2,0-0.3,0.1-0.3,0.4
		c0,0.3-0.1,0.4-0.4,0.4c-0.3,0-0.4,0.1-0.4,0.4c0,0.3-0.1,0.4-0.4,0.4c-0.3,0-0.4,0.1-0.4,0.4s-0.1,0.4-0.4,0.4s-0.4,0.1-0.4,0.4
		c0,0.3-0.1,0.4-0.4,0.4c-0.3,0-0.4,0.1-0.4,0.3c0,0.2-0.1,0.3-0.3,0.3c-0.2,0-0.3,0.1-0.3,0.4c0,0.3-0.1,0.4-0.4,0.4
		c-0.3,0-0.4,0.1-0.4,0.4c0,0.3-0.1,0.4-0.4,0.4c-0.3,0-0.4,0.1-0.4,0.4c0,0.3-0.1,0.4-0.4,0.4c-0.3,0-0.4,0.1-0.4,0.4
		c0,0.3-0.1,0.4-0.4,0.4C6.1,20.6,6,20.7,6,21c0,0.2-0.1,0.3-0.3,0.3c-0.2,0-0.3,0.1-0.3,0.4c0,0.3-0.1,0.4-0.4,0.4
		c-0.3,0-0.4,0.1-0.4,0.4c0,0.3-0.1,0.4-0.4,0.4c-0.3,0-0.4,0.1-0.4,0.4s-0.1,0.4-0.4,0.4s-0.4,0.1-0.4,0.4c0,0.3-0.1,0.4-0.4,0.4
		C2.1,24.7,2,24.7,2,25c0,0.2-0.1,0.3-0.3,0.3c-0.2,0-0.3,0.1-0.3,0.4c0,0.3-0.1,0.4-0.4,0.4c-0.3,0-0.4,0.1-0.4,0.4
		c0,0.3-0.1,0.4-0.3,0.4c-0.5,0-0.3,0.8,0.3,0.9C0.8,28,6.9,28,14,28l12.9,0l0.5-0.5L28,27V13.5V0h-0.5C27.2,0,27,0.1,27,0.3
		 M231.7,9.3c-0.1,0.3-0.2,0.3-1.2,0.3c-1.1,0-1.1,0-1.1,0.4c0,0.4-0.1,0.4-0.8,0.5c-0.7,0-0.8,0.1-0.8,0.4c0,0.3-0.2,0.4-0.8,0.4
		c-0.7,0-0.8,0.1-0.8,0.4c0,0.3-0.2,0.4-0.8,0.4c-0.7,0-0.7,0-0.7,0.4c0,0.4,0,0.4-1.2,0.4c-1.1,0-1.2,0-1.2,0.3
		c0,0.3-0.1,0.3-1.1,0.4c-1,0-1.1,0.1-1.2,0.4c0,0.3-0.2,0.4-1.2,0.4c-1,0-1.1,0.1-1.2,0.4c0,0.3-0.2,0.4-1.2,0.4
		c-1.1,0-1.2,0.1-1.3,0.4c0,0.3-0.1,0.4-1.2,0.4c-1.1,0-1.2,0-1.2,0.4c0,0.3-0.1,0.4-0.4,0.4H212v1v2h0.9c0.8,0,0.9,0,0.9,0.4
		c0,0.4,0,0.4,1.2,0.4c1.1,0,1.2,0,1.4,0.4c0.1,0.3,0.3,0.4,0.9,0.4c0.6,0,0.7,0.1,0.8,0.4c0,0.3,0.2,0.4,0.8,0.4
		c0.4,0,0.7,0.4,0.8,0.8c0,0.6,0.1,0.8,0.5,0.8c0.4,0,0.4,0.2,0.4,0.9c0,0.8,0,0.9,0.4,0.9h0.1v29.7v29.7l-0.4,0.1
		c-0.2,0-0.4,0.2-0.4,0.4c-0.1,0.5-0.7,0.6-3.1,0.6c-1.9,0-2.3,0.1-2.3,0.4c0,0.2-0.3,0.2-1.1,0.2c-1.7,0-1.6-0.1-1.6,2.4
		c0,2,0,2.2,0.3,2.3c0.2,0,0.5,0.3,0.6,0.5c0.3,0.5,2.5,0.5,2.8,0c0.3-0.5,23.9-0.4,24.3,0c0.4,0.5,2.3,0.5,2.4,0
		c0.1-0.2,0.2-0.3,0.5-0.3h0v-2.5V87h-0.9c-0.7,0-0.9-0.1-1.1-0.3c-0.2-0.3-0.4-0.3-2.2-0.3c-1.1,0-2.4-0.1-2.9-0.1l-0.9-0.1v-0.9
		c0-0.9-0.2-1.5-0.6-1.5c-0.4,0-0.4-64.7,0-65.2c0.2-0.2,0.2-0.3,0-0.8c-0.3-0.7-0.3-2,0-2c0.5,0,0.6-0.7,0.6-4.4v-1.2l-0.4-0.1
		c-0.3-0.1-0.4-0.2-0.4-0.5c0-0.3-0.1-0.4-0.2-0.4c-0.1,0-0.3-0.1-0.5-0.3c-0.1-0.2-0.4-0.3-0.9-0.3c-0.5,0-0.7,0.1-0.7,0.3
		 M170.2,9.3c-0.2,0.1-0.4,0.3-0.4,0.4c0,0.2-0.2,0.3-0.4,0.3c-0.3,0-0.4,0.1-0.4,0.4c0,0.4-0.1,0.4-0.9,0.4c-1.1,0-1.4,0.1-1.4,0.5
		c0,0.3-0.1,0.3-0.8,0.3c-0.8,0-0.8,0-0.8,0.4s-0.1,0.4-0.8,0.4c-0.7,0-0.8,0-0.8,0.3c0,0.3-0.1,0.3-0.8,0.3c-0.7,0-0.8,0-0.8,0.4
		c0,0.4,0,0.4-1,0.4c-1.2,0-1.5,0.1-1.5,0.5c0,0.3-0.1,0.3-0.8,0.3c-0.7,0-0.8,0-0.8,0.4c0,0.4,0,0.4-1.2,0.4c-1.2,0-1.2,0-1.2,0.4
		c0,0.4-0.1,0.4-0.8,0.4c-0.6,0-0.8,0-0.8,0.3c0,0.2-0.1,0.3-0.4,0.3c-0.4,0-0.4,0-0.4,1.6V20h1.2c1.1,0,1.2,0,1.2,0.4
		c0,0.4,0,0.4,1.2,0.4c1.2,0,1.2,0,1.2,0.4c0,0.3,0.1,0.4,0.3,0.4c0.2,0,0.4,0.1,0.4,0.3c0,0.2,0.2,0.4,0.4,0.4
		c0.2,0,0.4,0.2,0.4,0.4c0,0.2,0.2,0.4,0.4,0.4c0.3,0,0.4,0.2,0.4,1.2c0,1,0.1,1.1,0.4,1.2l0.4,0.1v33.2V92h0.2c0,0,0.8,0.4,0.8,0.8
		c0,0.4,0,0.4,1.2,0.4c1.1,0,1.2,0,1.2-0.4c0-0.4,0.1-0.4,0.8-0.4c0.7,0,0.8,0,0.8-0.3c0-0.3,0.1-0.3,0.7-0.4c0.5,0,0.7-0.1,0.9-0.4
		c0.1-0.2,0.4-0.4,0.8-0.5c0.4-0.1,0.7-0.2,0.8-0.5c0.1-0.3,0.1-0.3,0.2,0.1c0,0.4,0.1,0.5,0.8,0.5c0.6,0,0.8,0.1,0.8,0.3
		c0,0.4,0.3,0.5,1.7,0.5c1,0,1.2,0.1,1.4,0.3c0.2,0.3,0.4,0.3,2.3,0.3c2.1,0,2.7,0.1,2.7,0.6c0,0.1,1,0.2,4,0h4l0.1-0.3
		c0.1-0.4,0.1-0.4,1.6-0.4c1.5,0,1.6,0,1.6-0.3c0-0.3,0.1-0.3,1.2-0.3c1.1,0,1.2,0,1.2-0.4c0-0.4,0.1-0.4,0.8-0.5
		c0.7,0,0.8-0.1,0.8-0.4c0-0.3,0.2-0.4,0.8-0.4c0.7,0,0.8-0.1,0.8-0.4c0-0.3,0.2-0.4,0.5-0.4c0.5,0,1-0.4,1-0.7
		c0-0.1,0.2-0.2,0.4-0.2c0.3,0,0.4-0.1,0.4-0.3c0-0.2,0.1-0.3,0.4-0.4c0.2,0,0.4-0.2,0.4-0.4c0-0.2,0.2-0.4,0.4-0.4
		c0.2,0,0.4-0.2,0.4-0.4c0-0.2,0.2-0.4,0.4-0.4c0.2,0,0.3-0.1,0.3-0.4c0-0.3,0.1-0.4,0.4-0.4s0.4-0.1,0.4-0.4s0.1-0.4,0.4-0.4
		c0.3,0,0.4-0.1,0.4-0.3c0-0.2,0.1-0.3,0.4-0.4c0.2,0,0.4-0.2,0.4-0.4c0-0.2,0.2-0.4,0.4-0.5c0.2-0.1,0.4-0.3,0.4-0.5
		s0.2-0.4,0.4-0.4c0.3-0.1,0.3-0.2,0.3-0.8c0-0.6,0-0.7,0.4-0.7c0.4,0,0.4-0.1,0.4-0.7c0-0.6,0-0.7,0.4-0.8c0.3,0,0.4-0.2,0.4-0.8
		c0-0.7,0.1-0.8,0.5-0.8c0.4,0,0.4-0.1,0.4-0.7c0-0.6,0.1-0.7,0.4-0.9c0.3-0.1,0.4-0.3,0.4-1.3c0-1,0.1-1.1,0.4-1.1
		c0.3,0,0.3-0.1,0.3-1.6c0-1.4,0-1.6,0.3-1.7c0.5-0.2,0.5-0.4,0.4-4.4v-4l-0.2-0.2c-0.4-0.2-0.4-0.2-0.4-2.2c0-1.9,0-2-0.3-2
		c-0.3,0-0.3-0.1-0.3-1.1c0-1-0.1-1.2-0.4-1.6c-0.3-0.3-0.4-0.7-0.5-1.1c0-0.6-0.1-0.7-0.4-0.8c-0.3,0-0.4-0.2-0.4-0.4
		c0-0.2-0.2-0.5-0.4-0.7c-0.3-0.2-0.4-0.5-0.4-0.8c0-0.3-0.1-0.5-0.4-0.5c-0.3-0.1-0.4-0.2-0.4-0.5c0-0.3-0.1-0.4-0.3-0.4
		c-0.2,0-0.3-0.1-0.3-0.3c0-0.2-0.1-0.3-0.4-0.3c-0.3,0-0.4-0.1-0.4-0.4c0-0.3-0.1-0.4-0.4-0.4c-0.3,0-0.4-0.1-0.4-0.4
		s-0.1-0.4-0.4-0.4c-0.3,0-0.4-0.1-0.4-0.4c0-0.3-0.1-0.4-0.4-0.4c-0.3,0-0.4-0.1-0.5-0.3c-0.1-0.2-0.3-0.4-0.8-0.4
		c-0.5-0.1-0.7-0.2-0.7-0.4c0-0.3-0.1-0.3-0.8-0.3c-0.8,0-0.8,0-0.8-0.4c0-0.4-0.1-0.4-0.6-0.4c-0.4,0-0.6-0.1-0.9-0.4
		c-0.2-0.3-0.4-0.4-1.1-0.4c-0.6,0-0.8-0.1-0.9-0.3c-0.2-0.7-10.9-0.8-11.4-0.1c-0.2,0.3-0.4,0.4-1,0.4c-0.8,0-1.6,0.3-1.6,0.6
		c0,0.1-0.3,0.2-0.9,0.3c-0.8,0-0.9,0.1-0.9,0.4c0,0.3-0.2,0.4-0.8,0.4c-0.6,0-0.7,0-0.7,0.3c0,0.3-0.1,0.3-0.6,0.3
		c-0.8,0-1.1,0.1-1.1,0.5c0,0.2-0.2,0.3-0.4,0.4l-0.4,0.1V30.5V14.9l0.4-0.8c0.7-1.3,0.6-3.7-0.1-4.4c-0.5-0.5-3.6-0.7-4.6-0.3
		 M265.3,42.1c-0.4,0-0.7,0.2-0.8,0.4c-0.2,0.3-0.4,0.3-1.1,0.3c-0.5,0-0.9,0.1-0.9,0.2s-0.1,0.2-0.3,0.2c-0.1,0-0.3,0.1-0.4,0.2
		c-0.1,0.2-0.3,0.2-0.9,0.2c-0.8,0-0.8,0-0.8,0.4c0,0.4-0.1,0.4-0.8,0.4c-0.7,0-0.8,0-0.8,0.3c0,0.3-0.1,0.3-0.7,0.4
		c-0.6,0-0.7,0.1-0.8,0.4c0,0.3-0.2,0.4-0.4,0.4c-0.2,0-0.6,0.2-0.8,0.4c-0.2,0.2-0.6,0.4-0.8,0.5c-0.3,0-0.4,0.2-0.5,0.4
		c0,0.2-0.2,0.4-0.4,0.4c-0.2,0-0.3,0.1-0.3,0.4c0,0.3-0.1,0.4-0.4,0.4c-0.3,0-0.4,0.1-0.4,0.3c0,0.2-0.1,0.3-0.4,0.3
		c-0.3,0-0.4,0.1-0.4,0.4c0,0.3-0.1,0.4-0.4,0.4c-0.3,0-0.4,0.1-0.4,0.4c0,0.3-0.1,0.4-0.4,0.5c-0.2,0-0.4,0.2-0.4,0.4
		s-0.2,0.4-0.4,0.4c-0.3,0-0.3,0.1-0.3,0.8c0,0.7,0,0.8-0.4,0.8c-0.3,0-0.4,0.1-0.4,0.4c0,0.3-0.1,0.4-0.4,0.5
		c-0.3,0-0.4,0.2-0.4,0.8c0,0.7-0.1,0.8-0.5,0.8c-0.4,0-0.4,0.1-0.4,0.7c0,0.6,0,0.7-0.4,0.8c-0.3,0-0.4,0.2-0.4,1.3
		c0,1.1-0.1,1.2-0.4,1.2c-0.3,0-0.3,0.1-0.3,1.2c0,1.1,0,1.2-0.3,1.2c-0.5,0-0.5,0.2-0.5,5.8V73h0.4c0.4,0,0.4,0,0.4,1.6
		c0,1.5,0,1.6,0.3,1.6c0.3,0,0.3,0.1,0.3,0.8c0,1.1,0.1,1.5,0.5,1.6c0.2,0.1,0.3,0.2,0.3,0.6c0,0.7,0.2,1,0.5,1
		c0.2,0,0.3,0.1,0.3,0.4c0,0.3,0.1,0.4,0.4,0.4c0.4,0,0.4,0.1,0.5,0.8c0,0.7,0.1,0.8,0.4,0.8c0.3,0,0.4,0.2,0.4,0.5s0.1,0.4,0.3,0.4
		c0.2,0,0.3,0.1,0.3,0.3c0,0.2,0.1,0.3,0.4,0.3c0.3,0,0.4,0.1,0.4,0.5c0,0.3,0.1,0.6,0.4,0.9c0.2,0.2,0.4,0.5,0.5,0.7
		c0.1,0.2,0.2,0.3,0.4,0.3c0.1,0,0.3,0.2,0.4,0.4c0.1,0.2,0.3,0.4,0.4,0.4c0.2,0,0.4,0.2,0.7,0.4c0.2,0.2,0.6,0.4,0.8,0.4
		c0.3,0,0.4,0.1,0.4,0.4c0,0.3,0.1,0.4,0.4,0.4c0.3,0,0.4,0.1,0.5,0.4c0.1,0.4,0.2,0.4,0.8,0.4c0.7,0,0.7,0,0.7,0.4
		c0,0.4,0.1,0.4,0.7,0.4c0.6,0,0.7,0.1,0.7,0.3c0,0.4,0.3,0.5,1.5,0.5c0.9,0,1,0,1,0.3c0,0.3,0.1,0.3,2,0.3h1.3v0.8V93h4.2h3.8v-0.6
		V92h2c1.9,0,2,0,2-0.3c0-0.3,0.1-0.3,1.1-0.3c1,0,1.2,0,1.4-0.4c0.2-0.3,0.4-0.4,1-0.4c0.9,0,1.3-0.1,1.3-0.5
		c0-0.3,0.1-0.3,0.7-0.3c0.7,0,0.8,0,0.8-0.4c0.1-0.3,0.2-0.4,0.4-0.4c0.2,0,0.3-0.1,0.3-0.4c0-0.4,0.1-0.4,0.8-0.4
		c0.7,0,0.8,0,0.8-0.3c0-0.2,0.1-0.3,0.4-0.4c0.2,0,0.4-0.2,0.4-0.4c0-0.2,0.2-0.4,0.4-0.4c0.2,0,0.4-0.2,0.4-0.4
		c0-0.2,0.2-0.4,0.4-0.4c0.2,0,0.3-0.1,0.3-0.4c0-0.3,0.1-0.4,0.4-0.4c0.3,0,0.4-0.1,0.4-0.4s0.1-0.4,0.4-0.4c0.3,0,0.4-0.1,0.4-0.3
		c0-0.2,0.2-0.4,0.4-0.4c0.3-0.1,0.4-0.2,0.4-0.5c0-0.3,0.1-0.4,0.3-0.4c0.3,0,0.3-0.2,0.4-0.7c0.1-0.6,0.2-0.7,0.4-0.7
		c0.2,0,0.3-0.1,0.3-0.4c0-0.3,0.1-0.4,0.4-0.5c0.3,0,0.4-0.2,0.4-0.7c0-0.6,0.1-0.7,0.5-0.8c0.4-0.1,0.4-0.2,0.4-0.8
		c0-0.6,0.1-0.7,0.4-0.8c0.3,0,0.4-0.2,0.4-1.1c0-0.9,0.1-1.1,0.4-1.2c0.3-0.1,0.4-0.3,0.4-1.6c0.1-2.5,0.2-0.7,2.2-2.5
		c2.4-2.1,2.3-6.1-0.5-7.9c-1.6-1-1.7,0.2-1.7-1.9c0-1.3-0.2-1.9-0.6-1.9c-0.2,0-0.2-0.2-0.3-0.8c0-0.7-0.1-0.8-0.4-0.8
		c-0.3,0-0.4-0.2-0.4-0.8c0-0.6-0.1-0.8-0.4-1c-0.2-0.2-0.4-0.5-0.5-0.8c0-0.4-0.2-0.5-0.4-0.5c-0.3,0-0.4-0.2-0.4-0.6
		c0-0.4-0.1-0.6-0.3-0.8c-0.2-0.1-0.3-0.4-0.4-0.5c0-0.2-0.2-0.4-0.4-0.4c-0.3,0-0.4-0.2-0.4-0.5c0-0.3-0.1-0.4-0.4-0.4
		c-0.3,0-0.4-0.1-0.4-0.4c0-0.3-0.1-0.4-0.4-0.4c-0.3,0-0.4-0.1-0.4-0.4c0-0.3-0.1-0.4-0.4-0.4c-0.3,0-0.4-0.1-0.4-0.3
		c0-0.2-0.1-0.3-0.3-0.3c-0.2,0-0.3-0.1-0.3-0.4c0-0.3-0.1-0.4-0.4-0.4s-0.4-0.1-0.4-0.4c0-0.3-0.1-0.4-0.4-0.4
		c-0.3,0-0.4-0.1-0.4-0.3c0-0.4-0.3-0.5-1.1-0.5c-0.5,0-0.6-0.1-0.6-0.4c0-0.4-0.1-0.4-0.7-0.4c-0.6,0-0.7,0-0.7-0.3
		c0-0.3-0.1-0.3-0.8-0.3c-0.8,0-0.8,0-0.8-0.4c0-0.4-0.1-0.4-0.6-0.4c-0.4,0-0.7-0.1-0.9-0.4c-0.3-0.4-0.5-0.4-1.4-0.4
		c-0.9,0-1.1-0.1-1.3-0.4l-0.2-0.4l-5.5,0c-3.1,0-5.9,0-6.3,0.1 M316.7,42.2c-0.2,0.1-0.4,0.3-0.5,0.4c-0.1,0.1-0.3,0.3-0.5,0.3
		c-0.2,0-0.6,0.2-0.8,0.4c-0.2,0.2-0.6,0.4-0.8,0.4c-0.2,0-0.6,0.2-0.8,0.4c-0.3,0.3-0.6,0.4-1.1,0.4c-0.5,0-0.7,0.1-0.8,0.3
		c-0.1,0.3-0.3,0.3-0.8,0.3c-0.5,0-0.7,0.1-0.8,0.4c-0.1,0.3-0.3,0.4-0.9,0.5c-0.6,0-0.7,0.1-0.7,0.4c0,0.3-0.1,0.4-0.9,0.4
		c-0.8,0-0.8,0-0.8,0.4c0,0.4-0.1,0.4-0.8,0.4s-0.8,0-0.8,0.4c0,0.4-0.1,0.4-0.8,0.4c-0.7,0-0.8,0-0.8,0.3c0,0.2-0.1,0.3-0.4,0.3
		c-1,0-1.7,2.9-0.8,3.1c0.2,0.1,0.3,0.2,0.3,0.5c0,0.4,0.1,0.4,0.8,0.4c0.8,0,0.8,0,0.8,0.4c0,0.3,0.1,0.4,0.4,0.4
		c0.3,0,0.4,0.1,0.5,0.3c0.1,0.2,0.3,0.4,0.8,0.4c0.6,0.1,0.7,0.2,0.7,0.5c0,0.3,0.1,0.4,0.4,0.4c0.3,0,0.4,0.1,0.4,0.3
		c0,0.2,0.1,0.3,0.4,0.3c0.4,0,0.4,0,0.5,1.2c0,1.1,0.1,1.2,0.4,1.3l0.4,0.1v13V85h-1.1c-0.4,0-0.4,0.1-0.4,0.4
		c0,0.4-0.9,0.6-3.3,0.6c-0.9,0-1.2,0.1-1.5,0.3c-0.2,0.2-0.6,0.3-0.8,0.3c-0.3,0-0.4,0.1-0.4,0.2c0,0.1-0.1,0.2-0.2,0.2
		c-0.6,0-0.7,3.1-0.1,3.6c0.1,0.2,0.3,0.4,0.3,0.5c0,0.1,0.2,0.2,0.4,0.2c0.3,0,0.5,0.1,0.5,0.3c0.1,0.3,0.2,0.3,0.9,0.3
		c0.6,0,0.9-0.1,1.2-0.3c0.3-0.3,0.6-0.3,10.3-0.3c9.8,0,9.9,0,10,0.3c0.1,0.5,2.3,0.5,2.4,0c0-0.2,0.3-0.3,0.5-0.4
		c0.4,0,0.4-0.1,0.4-2.4v-2.3l-0.9-0.1c-0.6,0-1-0.1-1.1-0.4c-0.2-0.3-0.4-0.3-1.2-0.3c-0.5,0-1,0-1.1-0.1c-0.1-0.1-0.3-0.1-0.5-0.1
		c-0.3,0-0.3-0.1-0.3-0.6c0-0.7-0.4-1.7-0.7-1.7c-0.1,0-0.2-3.7-0.2-11.9V59.6l0.4-0.7c0.4-0.7,0.4-0.9,0.4-2.4c0-1.5,0-1.6,0.4-1.8
		c0.3-0.1,0.4-0.3,0.5-0.9c0-0.6,0.1-0.7,0.4-0.7c0.3,0,0.3-0.1,0.3-0.4c0-0.3,0.1-0.4,0.4-0.4c0.3,0,0.4-0.1,0.4-0.3
		c0-0.3,0.1-0.3,0.6-0.3c0.8,0,1.2-0.1,1.2-0.5c0-0.2,0.2-0.3,0.8-0.4c0.6,0,0.8-0.1,0.8-0.4c0.1-0.5,7-0.6,7-0.1
		c0,0.4,0.3,0.5,1.2,0.5c0.5,0,0.6,0.1,0.7,0.4c0,0.2,0.2,0.4,0.5,0.4c0.3,0,0.4,0.2,0.4,0.4c0,0.2,0.1,0.3,0.3,0.3
		c0.2,0,0.4,0.1,0.4,0.4c0,0.2,0.2,0.4,0.5,0.4c0.3,0,0.4,0.2,0.4,0.5c0,0.3,0.1,0.4,0.4,0.4H340v1.7c-0.3,1.7-0.2,2.3,0.3,2.3
		c0.1,0,0.2,4.2,0.7,10.6v10.6l-0.9,0.4c-0.4,0.4-0.4,0.4-0.1,3.4v3l-1.2,0.1c-0.5,0.1-1.2,0.1-1.7,0.1c-0.6,0-0.9,0.1-1.1,0.3
		c-0.2,0.2-1.2,0.5-1.2,0.5h0.3l0,2.4c0,2.3,0.1,2.4,0.4,2.4c0.2,0,0.4,0.2,0.4,0.4c0.1,0.5,2,0.5,2.1,0c0.1-0.4,19.1-0.5,19.1-0.1
		c0,0.6,1.8,0.6,2.4,0l0.4-0.4v-2.3V87h-0.7c-0.6,0-0.8-0.1-0.9-0.3c-0.2-0.3-0.4-0.3-1.6-0.3c-2.1,0-2.6-0.1-2.6-0.6
		c0-0.6-0.3-1.1-0.6-1.1c-0.4,0-0.2-9.5,0.2-9.9c0.4-0.4,0.4-1.4,0.4-9.8l-0.1-8.4l-0.4-0.4c-0.3-0.4-0.4-0.6-0.4-2.4
		c0-2-0.2-2.6-0.6-2.6c-0.1,0-0.2-0.3-0.2-0.7c0-0.5-0.1-0.8-0.3-1c-0.2-0.1-0.3-0.4-0.4-0.6c0-0.2-0.2-0.4-0.4-0.4
		c-0.3,0-0.4-0.2-0.4-0.5c0-0.3-0.1-0.4-0.4-0.4c-0.3,0-0.4-0.1-0.4-0.4s-0.1-0.4-0.4-0.4c-0.3,0-0.4-0.1-0.4-0.4
		c0-0.3-0.1-0.4-0.4-0.4s-0.4-0.1-0.4-0.4c0-0.3-0.1-0.4-0.4-0.4c-0.3,0-0.4-0.1-0.5-0.3c-0.1-0.3-0.2-0.3-0.8-0.3
		c-0.6,0-0.7,0-0.7-0.4c0-0.4-0.1-0.4-0.6-0.4c-0.4,0-0.7-0.1-0.9-0.4c-0.3-0.3-0.5-0.4-1.1-0.4c-0.6,0-0.8-0.1-0.8-0.3
		c-0.1-0.4-1-0.5-5.6-0.5c-4.4,0-5,0.1-5.1,0.5c-0.1,0.2-0.2,0.3-0.9,0.3c-0.7,0-0.8,0.1-1.1,0.4c-0.2,0.3-0.4,0.4-0.8,0.4
		c-0.5,0-0.6,0.1-0.6,0.4c0,0.3-0.2,0.4-0.8,0.4c-0.7,0-0.8,0.1-0.8,0.4c0,0.3-0.1,0.3-0.8,0.3c-0.7,0-0.8,0-0.8,0.4
		c0,0.3-0.1,0.4-0.4,0.4c-0.3,0-0.4,0.1-0.4,0.4c0,0.3-0.1,0.4-0.4,0.4c-0.2,0-0.6,0.2-0.8,0.4c-0.2,0.2-0.6,0.4-0.8,0.4
		c-0.2,0-0.4,0.1-0.4,0.3c-0.1,0.2-0.1,0.2-0.1-0.1c0-0.5-0.3-1-0.6-1c-0.2,0-0.2-0.4-0.3-1.9c0-1.8-0.1-1.9-0.4-2
		c-0.2-0.1-0.4-0.3-0.4-0.5c0-0.4-2.4-0.6-3.3-0.2 M378.6,42.3c-0.3,0-0.5,0.2-0.6,0.4c-0.1,0.2-0.3,0.3-0.7,0.3
		c-0.8,0-1.5,0.3-1.5,0.6c0,0.2-0.2,0.3-0.8,0.3c-0.7,0-0.8,0.1-0.9,0.4c-0.1,0.3-0.3,0.4-0.5,0.4c-0.2,0-0.5,0.1-0.7,0.3
		c-0.2,0.2-0.5,0.3-0.8,0.4c-0.3,0-0.5,0.2-0.5,0.4c0,0.3-0.2,0.4-0.5,0.4c-0.3,0-0.4,0.1-0.4,0.4c0,0.3-0.1,0.4-0.4,0.4
		c-0.7,0-1.1,0.5-1.1,1.1c0,0.5-0.1,0.6-0.4,0.6c-0.3,0-0.4,0.1-0.4,0.3c0,0.2-0.1,0.3-0.4,0.4c-0.3,0-0.4,0.2-0.4,0.8
		c0,0.7-0.1,0.8-0.5,0.8c-0.4,0-0.4,0.1-0.4,0.8c0,0.7,0,0.8-0.4,0.9c-0.4,0.1-0.4,0.1-0.4,2.4c0,2.2-0.1,2.4-0.4,2.4
		c-0.5,0.1-0.5,1.7,0,2c0.3,0.2,0.3,0.4,0.3,1.7c0,1.6,0.2,2.4,0.6,2.4c0.2,0,0.3,0.2,0.3,0.8c0,0.7,0.1,0.8,0.4,0.8
		c0.3,0,0.4,0.2,0.4,0.5c0,0.3,0.1,0.4,0.4,0.4c0.3,0,0.4,0.1,0.4,0.4c0,0.2,0.2,0.5,0.4,0.6c0.2,0.1,0.4,0.3,0.4,0.4
		c0,0.4,0.6,0.9,1.1,0.9c0.3,0,0.4,0.1,0.4,0.4c0,0.3,0.1,0.4,0.4,0.4c0.3,0,0.4,0.1,0.5,0.4c0,0.3,0.2,0.4,0.8,0.4
		c0.7,0,0.8,0.1,0.8,0.5c0,0.4,0.1,0.4,0.7,0.4c0.6,0,0.7,0.1,0.8,0.4c0,0.3,0.2,0.4,0.8,0.4c0.6,0,0.8,0.1,0.9,0.4
		c0.1,0.3,0.2,0.3,1.2,0.3c1,0,1.1,0,1.1,0.4c0.1,0.4,0.1,0.4,1.6,0.4c1.4,0,1.5,0.1,1.6,0.4c0,0.3,0.2,0.4,1.3,0.4
		c1.2,0,1.2,0.1,1.2,0.5c0,0.4,0.1,0.4,0.7,0.4c0.6,0,0.7,0.1,0.8,0.4c0,0.3,0.2,0.4,0.8,0.4c0.7,0,0.8,0.1,0.8,0.4
		c0,0.2,0.1,0.3,0.4,0.3c0.3,0,0.4,0.1,0.4,0.4s0.1,0.4,0.4,0.4c0.4,0,0.4,0.1,0.4,0.8c0,0.6,0,0.8,0.3,0.8c0.3,0,0.3,0.1,0.3,2.1
		c0,1.9,0,2.1-0.3,2.3c-0.2,0.1-0.3,0.4-0.3,0.8c0,0.5-0.1,0.6-0.4,0.6c-0.3,0-0.4,0.1-0.4,0.3c0,0.2-0.1,0.3-0.4,0.4
		c-0.2,0-0.4,0.2-0.4,0.4c0,0.3-0.2,0.4-0.7,0.5c-0.5,0.1-0.7,0.2-0.8,0.4c-0.1,0.3-0.2,0.3-3.7,0.3h-3l-0.1-0.4
		c0-0.3-0.2-0.4-0.9-0.5c-0.8-0.1-0.9-0.1-0.9-0.5c0-0.4-0.1-0.4-0.5-0.4c-0.3,0-0.5-0.1-0.5-0.4c0-0.2-0.1-0.4-0.4-0.4
		c-0.3,0-0.4-0.1-0.4-0.5c0-0.4-0.1-0.5-0.4-0.5c-0.4,0-0.4-0.1-0.5-0.9c0-0.7-0.1-0.9-0.5-0.9c-0.3,0-0.4-0.2-0.4-0.5
		c0-0.4-0.1-0.4-0.5-0.4c-0.4,0-0.5-0.1-0.5-0.8s0-0.8-0.5-0.8c-0.4,0-0.5-0.1-0.5-0.9c0-0.8-0.1-0.9-0.3-0.9
		c-0.3,0-0.4-0.2-0.5-0.7c-0.1-0.5-0.2-0.8-0.5-0.8c-0.2-0.1-0.4-0.2-0.4-0.5c0-0.3-0.1-0.4-0.5-0.4c-0.4,0-0.5-0.1-0.5-0.4
		c0-1-0.2-1.2-1-1.3c-1-0.1-1.5,0.1-1.5,0.5c0,0.2-0.2,0.3-1,0.3c-1.6,0-1.6-0.1-1.6,2.6c0,2.2,0,2.4,0.4,2.5
		c0.3,0.1,0.4,0.3,0.4,2.6c0,2.4,0.1,2.5,0.5,2.6c0.4,0.1,0.4,0.1,0.5,2.6c0.1,2.5,0.1,2.6,0.5,2.6c0.3,0,0.4,0.2,0.4,0.5
		c0,0.3,0.1,0.4,0.4,0.4c0.3,0,0.5,0.1,0.5,0.4c0,0.3,0.2,0.4,0.9,0.5c0.6,0,0.8,0.1,0.9,0.4c0.1,0.4,0.6,0.5,1.7,0.5
		c0.6,0,1,0.1,1.2,0.4c0.3,0.3,0.6,0.4,2.6,0.4h1.5v-0.2V93h3.8h3.2v-0.2V93h2.3c1.9,0,2,0,2-0.3c0-0.3,0.1-0.3,1.2-0.4
		c1.1,0,1.2-0.1,1.3-0.4c0-0.3,0.2-0.4,0.8-0.4c0.7,0,0.7,0,0.7-0.4c0-0.3,0.1-0.4,0.3-0.4c0.5,0,1.2-0.4,1.2-0.6
		c0-0.1,0.2-0.2,0.5-0.2c0.4,0,0.5-0.1,0.5-0.4c0-0.3,0.1-0.4,0.4-0.4c0.3,0,0.4-0.1,0.4-0.3c0-0.2,0.1-0.3,0.3-0.3
		c0.2,0,0.3-0.1,0.3-0.4c0-0.3,0.1-0.4,0.4-0.4c0.3,0,0.4-0.1,0.4-0.4c0-0.3,0.1-0.4,0.4-0.5c0.3,0,0.4-0.2,0.4-0.8
		c0-0.7,0.1-0.8,0.5-0.8c0.4,0,0.4-0.1,0.4-0.7c0-0.6,0.1-0.7,0.4-0.8c0.3,0,0.4-0.2,0.4-0.8c0-0.4,0.1-0.8,0.2-0.8
		c0.1,0,0.2-2,0.2-5.2c0-3.1-0.1-5.2-0.2-5.2c-0.1,0-0.2-0.3-0.2-0.7c0-0.5-0.1-0.7-0.4-0.9c-0.3-0.1-0.4-0.3-0.4-0.6
		c0-0.7-0.2-1-0.5-1c-0.2,0-0.3-0.1-0.4-0.4c0-0.2-0.2-0.4-0.4-0.4c-0.2,0-0.4-0.2-0.4-0.4c0-0.2-0.2-0.4-0.4-0.4
		c-0.2,0-0.4-0.2-0.4-0.4c0-0.2-0.2-0.4-0.4-0.4c-0.2,0-0.4-0.2-0.4-0.4c-0.1-0.3-0.2-0.3-0.8-0.3c-0.6,0-0.7,0-0.7-0.4
		c0-0.3-0.1-0.4-0.4-0.4c-0.2,0-0.4-0.1-0.5-0.4c-0.1-0.3-0.3-0.4-0.8-0.4c-0.4,0-0.8-0.2-1-0.5c-0.3-0.3-0.6-0.4-1.2-0.4
		c-0.7,0-0.8,0-0.9-0.4c0-0.3-0.2-0.4-0.9-0.4c-0.5,0-1-0.2-1.2-0.4c-0.3-0.2-0.7-0.3-1.6-0.3c-0.9,0-1.1-0.1-1.1-0.2
		c0-0.4-0.6-0.6-1.6-0.6c-0.7,0-0.9-0.1-0.9-0.3c0-0.3-0.7-0.6-1.5-0.6c-0.5,0-0.7-0.1-0.8-0.3c-0.1-0.3-0.5-0.5-1.2-0.5
		c-0.2,0-0.4-0.1-0.4-0.4c0-0.2-0.2-0.4-0.4-0.4s-0.4-0.2-0.4-0.4c0-0.2-0.1-0.3-0.4-0.3c-0.3,0-0.4-0.1-0.4-0.4
		c0-0.3-0.1-0.4-0.3-0.4c-0.3,0-0.3-0.1-0.3-2s0-2,0.3-2c0.2,0,0.3-0.1,0.3-0.4c0-0.4,0.6-1.1,1.2-1.4c0.2-0.1,0.3-0.3,0.3-0.4
		c0-0.2,0.2-0.2,0.5-0.2c0.4,0,0.5-0.1,0.5-0.4c0-0.4,0-0.4,1.1-0.4c0.9,0,1.2-0.1,1.5-0.3c0.4-0.4,2.4-0.5,2.4-0.1
		c0,0.3,0.5,0.4,1.5,0.4c0.6,0,0.8,0.1,0.9,0.4c0.1,0.3,0.3,0.4,0.8,0.4c0.5,0,0.6,0.1,0.6,0.5c0,0.3,0.1,0.4,0.4,0.4
		c0.3,0,0.4,0.1,0.5,0.4c0,0.2,0.2,0.4,0.4,0.4c0.3,0,0.4,0.2,0.4,0.5c0,0.3,0.1,0.4,0.3,0.4c0.2,0,0.3,0.1,0.3,0.3
		c0,0.2,0.1,0.3,0.4,0.3c0.3,0,0.4,0.1,0.4,0.4s0.1,0.4,0.4,0.4s0.4,0.1,0.4,0.4c0,0.3,0.1,0.4,0.4,0.4c0.3,0,0.4,0.1,0.4,0.4
		c0,0.3,0.1,0.4,0.4,0.4c0.3,0,0.4,0.1,0.4,0.4c0,0.3,0.1,0.4,0.3,0.4c0.2,0,0.3,0.2,0.4,0.7c0.1,0.5,0.2,0.7,0.4,0.8
		c0.2,0,0.3,0.2,0.4,0.4c0.1,0.7,2.3,0.6,2.3-0.1c0-0.3,0.1-0.3,0.8-0.3c0.8,0,0.8,0,0.8-0.4c0-0.3,0.1-0.4,0.4-0.5
		c0.7-0.1,0.6-2,0-2.2c-0.3-0.1-0.3-0.3-0.3-2c0-1.9,0-1.9-0.4-2c-0.4-0.1-0.4-0.1-0.4-2c0-1.9,0-1.9-0.4-2
		c-0.3-0.1-0.4-0.2-0.4-0.5c0-0.3-0.1-0.4-0.3-0.4c-0.2,0-0.5-0.2-0.7-0.3c-0.2-0.2-0.5-0.3-0.8-0.3c-0.3,0-0.5-0.1-0.7-0.4
		c-0.2-0.3-0.3-0.4-0.9-0.4c-0.5,0-0.8-0.1-1.1-0.4c-0.3-0.3-0.6-0.4-1.2-0.4c-0.6,0-0.8-0.1-1.1-0.4c-0.3-0.4-10.1-0.6-11.9-0.3
		 M51.6,43c-0.2,0.2-0.8,0.4-1.2,0.4c-0.6,0.1-0.9,0.2-1,0.4c-0.1,0.2-0.4,0.3-0.8,0.3s-0.7,0.1-0.9,0.3c-0.1,0.2-0.5,0.4-1,0.5
		c-0.4,0.1-0.9,0.3-1.1,0.5s-0.6,0.3-0.9,0.3c-0.3,0-0.7,0.2-0.9,0.4c-0.3,0.3-0.6,0.4-1,0.4c-0.3,0-0.6,0.1-0.7,0.3
		c-0.1,0.2-0.5,0.4-0.8,0.4s-0.8,0.3-1.1,0.4c-0.2,0.2-0.7,0.4-1.1,0.4c-0.4,0.1-0.7,0.2-0.8,0.3c0,0.1-0.4,0.3-0.8,0.4
		c-1.3,0.4-1.6,0.7-1.6,1.7c0,0.8,0,0.9,0.4,1c0.2,0.1,0.6,0.3,0.8,0.5c0.3,0.2,0.6,0.4,0.8,0.4c0.2,0,0.4,0.1,0.4,0.2
		c0.1,0.1,0.4,0.3,0.8,0.5c0.4,0.2,0.8,0.5,0.8,0.6c0.1,0.1,0.3,0.2,0.4,0.2c0.4,0,1.8,1.3,2,1.9c0.1,0.2,0.2,0.5,0.4,0.6
		C43,56.8,43,59.4,43,86.4v29.7l-0.5,0.7c-0.8,1.2-0.7,1.2-3.8,1.2H36v1.8c0,1,0.1,1.9,0.1,1.9c0.1,0,3.1,0,6.7-0.1
		c3.6-0.1,9.6-0.1,13.3,0c4.3,0.1,6.7,0.1,6.9,0c0.3-0.2,0.3-2.6,0-3.2l-0.2-0.4h-3c-3.4,0-4.1-0.2-4.1-1.3c0-0.2-0.2-0.8-0.4-1.2
		l-0.4-0.8l0-11.9c-0.1-14-0.2-13.1,1.5-12.3c0.5,0.2,1.2,0.5,1.7,0.5s1,0.2,1.2,0.3c1.1,0.7,9.9,0.6,11.4-0.1
		c0.4-0.2,1-0.3,1.2-0.3c0.3,0,0.8-0.2,1.2-0.4c0.4-0.2,0.9-0.4,1.1-0.4c0.2,0,0.6-0.2,0.7-0.3c0.2-0.2,0.6-0.4,0.9-0.4
		c0.3-0.1,0.6-0.2,0.7-0.3c0-0.1,0.3-0.3,0.6-0.5c0.9-0.4,1.6-0.9,1.9-1.1c1.2-1.2,3.4-3.3,3.8-3.8c0.3-0.3,0.6-0.6,0.7-0.6
		c0.1,0,0.2-0.2,0.2-0.4c0.1-0.2,0.2-0.4,0.3-0.4c0.1,0,0.3-0.2,0.3-0.6c0.1-0.3,0.2-0.7,0.4-0.8c0.2-0.1,0.4-0.5,0.6-0.8
		c0.1-0.3,0.4-0.8,0.5-1c0.1-0.2,0.3-0.6,0.4-0.8c0.1-0.2,0.3-0.5,0.3-0.7c0.1-0.1,0.2-0.5,0.3-0.7c0.1-0.2,0.2-0.6,0.4-0.7
		c0.2-0.2,0.3-0.7,0.4-1.2c0.1-0.5,0.2-1,0.4-1.2c0.1-0.2,0.3-0.9,0.4-1.7c0.1-0.8,0.3-1.6,0.5-1.9c0.4-0.8,0.4-10.8,0-11.4
		c-0.2-0.2-0.4-0.9-0.4-1.5c-0.1-0.7-0.3-1.3-0.5-1.6c-0.2-0.2-0.3-0.7-0.3-1c0-0.3-0.1-0.6-0.3-0.8c-0.1-0.1-0.4-0.5-0.6-0.9
		c-0.2-0.4-0.4-0.7-0.5-0.7c-0.1,0-0.2-0.1-0.2-0.2c0-0.1-0.2-0.5-0.5-0.7c-0.3-0.3-0.5-0.6-0.5-0.7c0-0.1-0.3-0.6-1.2-1.4
		c-0.2-0.2-0.3-0.4-0.3-0.5c0-0.1-0.1-0.2-0.2-0.2c-0.1,0-0.5-0.4-0.9-0.8c-0.4-0.4-1-0.9-1.2-1c-1-0.6-1.6-1-1.7-1.3
		c-0.1-0.1-0.3-0.2-0.6-0.2c-0.3,0-0.6-0.2-0.8-0.4c-0.3-0.3-0.5-0.4-0.9-0.4c-0.3,0-0.7-0.1-0.9-0.3c-0.2-0.2-0.5-0.3-0.9-0.3
		c-0.9,0-2.5-0.3-2.9-0.6c-0.5-0.4-3.8-0.3-4.5,0.1c-0.4,0.2-1.1,0.4-2,0.4c-1,0.1-1.5,0.2-1.8,0.4c-0.2,0.2-0.7,0.3-1,0.3
		c-0.4,0-0.7,0.1-1,0.4c-0.2,0.2-0.6,0.4-0.8,0.4c-0.2,0-0.6,0.2-0.8,0.4c-0.2,0.2-0.6,0.4-0.8,0.4c-0.2,0-0.4,0.1-0.5,0.3
		c-0.1,0.2-0.3,0.4-0.6,0.5c-0.3,0.1-0.5,0.2-0.5,0.3c0,0.1-0.2,0.3-0.5,0.5s-0.6,0.5-0.8,0.6c-0.1,0.2-0.3,0.3-0.5,0.3
		s-0.2,0.1-0.2,0.3c0,0.3-0.9,0.9-1.4,0.9c-0.5,0-0.6-0.6-0.7-2.9c-0.1-1.8-0.2-2.4-0.4-2.7c-0.2-0.2-0.3-0.6-0.4-0.8
		c-0.1-0.5-0.9-0.5-1.4-0.1 M133.4,43.3c-4.4,0-8,0.1-8,0.1s0,0.1,0,0.3c0,0.2-0.2,0.2-0.4,0.2h0.1v2.2c0,2.6-0.2,2.4,2.3,2.4
		c1.7,0,1.8,0,1.8,0.4c0,0.3,0.2,0.4,1.2,0.4c1.1,0,1.2,0.1,1.2,0.5c0,0.7,0.2,1,0.5,1c0.3,0,0.3,0.4,0.3,14.2
		c0,14.7,0,14.8-0.7,14.8c-0.1,0-0.2,0.3-0.2,0.7c0,0.6-0.1,0.7-0.4,0.8c-0.2,0-0.4,0.2-0.4,0.4s-0.2,0.4-0.4,0.4
		c-0.2,0-0.3,0.1-0.3,0.4c0,0.3-0.1,0.4-0.4,0.4c-0.3,0-0.4,0.1-0.4,0.4c0,0.4-0.1,0.4-0.9,0.4c-0.8,0-0.9,0-0.9,0.4
		c0,0.4-0.1,0.4-0.8,0.4c-0.7,0-0.8,0-0.8,0.3c0,0.3-0.1,0.3-2.9,0.3c-2.8,0-2.9,0-3-0.3c-0.1-0.3-0.2-0.3-0.8-0.3
		c-0.7,0-0.7,0-0.7-0.4c0-0.3-0.1-0.4-0.4-0.4c-0.3,0-0.4-0.1-0.4-0.4s-0.1-0.4-0.4-0.4c-0.4,0-0.4-0.1-0.4-0.7
		c0-0.6-0.1-0.8-0.3-0.8c-0.3-0.1-0.3-0.3-0.4-1c-0.1-0.7-0.2-1-0.4-1.2c-0.3-0.2-0.4-0.4-0.4-2c0-2.1-0.1-2.7-0.5-3.1
		c-0.5-0.5-0.5-5.1,0-5.9c0.3-0.5,0.3-1.3,0.4-12.4l0.1-12.9l-1.2,0c-0.8,0-1.3,0.1-1.6,0.3c-0.3,0.2-1.5,0.2-8.3,0.2
		c-9.3,0-8.5-0.1-8.5,1.4c0,1.3,0.2,1.6,0.7,1.6c0.2,0,0.5,0.1,0.7,0.3c0.2,0.1,0.8,0.3,1.4,0.4c1.1,0.1,2.8,1.2,2.8,1.8
		c0,0.1,0.2,0.5,0.4,0.9l0.4,0.7l0.1,13.8c0.1,12.8,0.1,13.9,0.4,14.6c0.2,0.4,0.4,1.2,0.4,1.7c0.1,0.5,0.2,1.1,0.4,1.3
		c0.1,0.2,0.3,0.5,0.4,0.9c0.1,0.3,0.3,0.7,0.4,0.9c0.2,0.2,0.4,0.5,0.4,0.8c0.1,0.2,0.3,0.6,0.4,0.7c0.2,0.2,0.3,0.4,0.3,0.5
		s0.2,0.3,0.3,0.5c0.2,0.2,0.6,0.7,0.9,1.1c1.1,1.4,1.5,1.8,1.7,1.8c0.1,0,0.3,0.2,0.5,0.4c0.2,0.2,0.6,0.5,0.9,0.6
		c0.3,0.1,0.5,0.3,0.5,0.4s0.3,0.3,0.7,0.4c0.4,0.1,0.8,0.3,1,0.4c0.1,0.1,0.7,0.3,1.2,0.3c1,0.1,1.3,0.4,1.3,1.1
		c0,0.3,0.1,0.3,3.2,0.3h2.6v-0.4c0-0.4,0-0.4,1.6-0.4c1.5,0,1.6,0,1.7-0.3c0.1-0.3,0.2-0.3,0.7-0.3c0.8,0,1.5-0.3,1.5-0.6
		c0-0.1,0.2-0.2,0.4-0.2c0.7,0,1.1-0.2,1.2-0.5c0.1-0.2,0.3-0.3,0.5-0.3c0.3,0,0.4-0.1,0.4-0.4c0-0.4,0.1-0.4,0.7-0.4
		c0.6,0,0.7-0.1,0.9-0.4c0.1-0.3,0.3-0.4,0.6-0.4c0.3,0,0.4-0.1,0.4-0.3c0-0.2,0.2-0.4,0.3-0.4c0.2,0,0.4-0.2,0.4-0.4
		c0-0.2,0.2-0.4,0.4-0.4c0.2-0.1,0.3-0.3,0.4-0.9c0-0.4,0.1,0.3,0.1,1.7c0,2.5,0.2,3.1,0.6,3.1c0.2,0,0.2,0.2,0.2,0.8
		c0,0.7,0,0.8,0.3,0.8c0.2,0,0.3,0.1,0.3,0.4c0,0.4,0,0.4,1.6,0.4c1.6,0,1.6,0,1.6-0.4c0-0.4,0-0.4,1.3-0.4c1.5,0,1.9-0.1,1.9-0.4
		c0-0.2,0.3-0.2,1.2-0.3c1.1,0,1.2-0.1,1.3-0.4c0.1-0.4,0.1-0.4,1.4-0.4c1.5,0,1.8-0.1,1.8-0.5c0-0.3,0.1-0.3,1.3-0.3
		c1.3,0,1.9-0.2,1.9-0.6c0-0.2,0.3-0.2,1.2-0.3c1.1,0,1.2-0.1,1.3-0.4c0-0.3,0.2-0.4,0.5-0.4c0.9,0,1-0.1,1-1.1c0-0.8,0-0.9-0.4-1.1
		c-0.4-0.1-0.4-0.3-0.4-0.9c0-0.6-0.1-0.8-0.3-0.8c-0.2,0-0.4-0.2-0.4-0.4c-0.1-0.4-0.2-0.4-0.8-0.4c-0.6,0-0.7,0.1-0.8,0.4
		c-0.1,0.6-3.2,0.7-3.3,0.1c-0.1-0.2-0.2-0.4-0.4-0.4c-0.2,0-0.4-0.2-0.4-0.4c0-0.2-0.2-0.4-0.4-0.4l-0.4-0.1V64.2
		c0-18,0-18.5,0.3-18.6c0.6-0.2,0.6-1.8,0-2c-0.2-0.1-0.3-0.3-0.3-0.5v-0.2l-1.9,0c-1,0-5.5,0.1-9.9,0.1 M270.7,47.7
		c0.2,0.2,0.6,0.3,1.3,0.3c0.9,0,1.1,0,1.2,0.3c0.1,0.2,0.3,0.4,0.7,0.4c0.4,0.1,0.6,0.2,0.7,0.5c0.1,0.3,0.2,0.4,0.4,0.4
		c0.2,0,0.3,0.1,0.3,0.3c0,0.1,0.2,0.3,0.4,0.4c0.2,0.1,0.4,0.3,0.4,0.4s0.2,0.4,0.4,0.5c0.2,0.1,0.4,0.3,0.4,0.5
		c0,0.2,0.1,0.3,0.4,0.3c0.3,0,0.4,0.1,0.4,0.4c0,0.3,0.1,0.4,0.3,0.4c0.3,0,0.3,0.1,0.4,0.8c0,0.7,0.1,0.8,0.4,0.9
		c0.3,0,0.4,0.2,0.4,0.8c0,0.7,0,0.8,0.4,0.8c0.4,0,0.4,0.1,0.5,1.2c0,1.1,0.1,1.2,0.4,1.3c0.4,0.1,0.4,0.1,0.4,2c0,1.9,0,2,0.4,2.4
		l0.4,0.4v3.7v3.7l-0.4,0.2c-0.4,0.2-0.4,0.2-0.4,2.5c0,1.9,0,2.3-0.2,2.3c-0.4,0-0.6,0.6-0.6,1.9c0,1.3,0,1.3-0.4,1.3
		c-0.4,0-0.4,0.1-0.4,0.8c0,0.7,0,0.8-0.4,0.9c-0.3,0-0.4,0.2-0.4,0.8c0,0.6-0.1,0.7-0.4,0.7c-0.3,0-0.3,0.1-0.3,0.9
		c0,0.8,0,0.9-0.4,0.9c-0.3,0-0.4,0.1-0.4,0.4c0,0.3-0.1,0.4-0.4,0.4c-0.3,0-0.4,0.1-0.4,0.3c0,0.2-0.2,0.3-0.7,0.4
		c-0.5,0.1-0.7,0.2-0.8,0.4c-0.1,0.2-0.2,0.3-0.5,0.3c-0.8,0-1.2,0.2-1.2,0.5c0,0.5-4.8,0.5-5-0.1c-0.1-0.3-0.3-0.4-1.3-0.4
		c-1.1,0-1.1-0.1-1.1-0.5c0-0.3-0.1-0.4-0.4-0.4c-0.3,0-0.4-0.1-0.4-0.3c0-0.2-0.1-0.3-0.3-0.3c-0.2,0-0.3-0.1-0.3-0.4
		c0-0.3-0.1-0.4-0.4-0.4c-0.3,0-0.4-0.1-0.5-0.7c-0.1-0.5-0.2-0.7-0.4-0.8c-0.2-0.1-0.3-0.3-0.4-0.5c0-0.3-0.2-0.5-0.4-0.5
		c-0.3,0-0.4-0.2-0.4-0.8c0-0.7,0-0.8-0.4-0.8c-0.4,0-0.4-0.1-0.4-0.8c0-0.6-0.1-0.9-0.3-1c-0.3-0.2-0.3-0.4-0.3-1
		c0-1.2-0.2-1.9-0.5-2c-0.3-0.1-0.3-0.4-0.3-7.8v-7.7l0.4-0.2c0.4-0.2,0.4-0.3,0.4-1.7c0-1.4,0.1-1.6,0.4-1.6c0.3,0,0.3-0.1,0.3-0.5
		c0-0.4,0.1-0.6,0.4-0.9c0.3-0.3,0.4-0.5,0.4-1.1c0-0.7,0-0.8,0.4-0.8c0.3,0,0.4-0.1,0.4-0.4c0-0.3,0.1-0.4,0.4-0.5
		c0.3,0,0.4-0.2,0.4-0.8c0-0.6,0.1-0.7,0.4-0.8c0.2,0,0.4-0.2,0.4-0.4c0-0.2,0.2-0.4,0.3-0.4c0.4,0,1.1-0.4,1.1-0.6
		c0-0.1,0.2-0.2,0.5-0.2c0.4,0,0.5-0.1,0.5-0.4c0-0.4,0-0.4,1.9-0.5c1.3,0,1.9-0.1,2-0.3C270.3,47.3,270.4,47.3,270.7,47.7 M66.7,49
		c0.3,0.2,1,0.4,1.4,0.4c0.5,0.1,1,0.2,1.3,0.4c0.2,0.2,0.6,0.4,0.8,0.4c0.2,0.1,0.5,0.3,0.5,0.4c0.1,0.2,0.3,0.3,0.4,0.3
		c0.3,0,2.1,1.6,2.1,1.9c0,0.1,0.2,0.3,0.3,0.4c0.2,0.1,0.3,0.3,0.3,0.5c0,0.1,0.2,0.4,0.4,0.6s0.4,0.4,0.4,0.5
		c0,0.1,0.2,0.4,0.3,0.6c0.2,0.2,0.3,0.5,0.3,0.7c0,0.1,0.2,0.5,0.4,0.8c0.2,0.3,0.5,0.9,0.5,1.3c0.1,0.4,0.2,0.8,0.4,0.9
		c0.1,0.1,0.3,0.7,0.4,1.4c0.1,0.8,0.3,1.4,0.5,1.6c0.3,0.4,0.3,0.7,0.3,2.1c0,1.3,0.1,1.8,0.4,2.5c0.6,1.4,0.6,7,0,8.2
		c-0.3,0.6-0.4,1.1-0.4,2.1c0,1.1-0.1,1.4-0.4,1.8c-0.2,0.3-0.4,0.8-0.5,1.3c-0.1,0.5-0.2,0.9-0.4,1c-0.1,0.1-0.3,0.4-0.3,0.7
		c-0.1,0.3-0.3,0.7-0.4,0.8c-0.2,0.2-0.3,0.4-0.3,0.5c0,0.5-2.9,3.4-3.4,3.4c-0.1,0-0.4,0.1-0.5,0.3c-0.2,0.2-0.5,0.4-0.8,0.4
		c-0.3,0.1-0.8,0.3-1.1,0.4c-0.9,0.5-5.5,0.5-6.6,0c-0.4-0.2-1.1-0.4-1.4-0.4c-0.4-0.1-0.9-0.2-1.1-0.4c-0.3-0.2-0.6-0.3-0.8-0.3
		c-0.2,0-0.5-0.2-0.7-0.4s-0.5-0.4-0.6-0.4c-0.5,0-2.6-2.1-2.6-2.6c0-0.2-0.2-0.6-0.4-0.8L55,82l1-14v-14l0-1c0.5-0.6,1-1,1.2-1
		c0.1,0,0.3-0.2,0.5-0.4c0.1-0.2,0.4-0.4,0.5-0.4c0.1,0,0.4-0.2,0.7-0.4c0.3-0.2,0.7-0.4,0.9-0.4c0.2,0,0.5-0.1,0.6-0.3
		c0.2-0.2,0.6-0.4,1.2-0.4c0.5-0.1,1.3-0.2,1.6-0.4C64,48.6,65.9,48.5,66.7,49 M183.8,50.6c0.1,0.4,0.8,0.5,2.2,0.5
		c0.8,0,0.9,0,0.9,0.4c0,0.3,0.2,0.4,0.8,0.4c0.7,0,0.8,0.1,0.8,0.4c0,0.2,0.1,0.3,0.4,0.3c0.3,0,0.4,0.1,0.4,0.4
		c0,0.3,0.1,0.4,0.3,0.4c0.2,0,0.4,0.2,0.4,0.4c0.1,0.3,0.2,0.4,0.4,0.4c0.2,0,0.3,0.1,0.4,0.4c0,0.2,0.2,0.4,0.4,0.4
		c0.3,0,0.4,0.2,0.4,0.5c0,0.3,0.1,0.4,0.4,0.4c0.4,0,0.4,0.1,0.4,0.8s0,0.8,0.4,0.8c0.4,0,0.4,0.1,0.4,0.8c0,0.7,0,0.8,0.3,0.8
		c0.3,0,0.3,0.2,0.4,1.4c0.1,1.2,0.1,1.4,0.4,1.6c0.4,0.2,0.4,0.4,0.4,2.4c0,2.1,0.1,2.7,0.6,3c0.4,0.2,0.3,5.2-0.1,5.4
		c-0.4,0.1-0.5,0.5-0.5,2.7c0,1.7,0,1.9-0.3,2c-0.4,0.1-0.5,0.5-0.5,1.6c0,0.7,0,0.8-0.3,0.8c-0.3,0-0.3,0.1-0.3,0.7
		c0,0.6,0,0.7-0.4,0.8c-0.3,0-0.4,0.2-0.4,0.8c0,0.7-0.1,0.8-0.5,0.8c-0.3,0-0.4,0.1-0.4,0.4c0,0.3-0.1,0.4-0.4,0.4
		s-0.4,0.1-0.4,0.4c0,0.3-0.1,0.4-0.4,0.4c-0.3,0-0.4,0.1-0.4,0.3c0,0.2-0.1,0.3-0.3,0.3c-0.2,0-0.3,0.1-0.3,0.4
		c0,0.4-0.1,0.4-0.8,0.5c-0.7,0-0.8,0.1-0.8,0.4c-0.1,0.4-0.1,0.4-1.3,0.4c-1.3,0-1.9,0.2-1.9,0.6c0,0.2-0.3,0.2-1.7,0.2H181v-0.4
		c0-0.4-0.1-0.4-0.8-0.4c-0.7,0-0.9-0.1-1.2-0.4c-0.2-0.2-0.5-0.4-0.7-0.4c-0.2,0-0.4-0.1-0.4-0.4c0-0.2-0.2-0.4-0.4-0.4
		c-0.2,0-0.4-0.2-0.4-0.4c0-0.2-0.1-0.3-0.4-0.3c-0.3,0-0.4-0.1-0.4-0.4c0-0.3-0.1-0.4-0.3-0.4c-0.2,0-0.3-0.2-0.4-0.8
		c-0.1-0.6-0.2-0.8-0.4-0.8c-0.3,0-0.3-0.1-0.3-1.2c0-1.1,0-1.3-0.4-1.6l-0.4-0.4l1-13.6V52h-0.2c0.6,0,0.8-0.1,0.9-0.3
		c0.1-0.2,0.2-0.3,0.6-0.3c0.7,0,1-0.2,1-0.5c0-0.3,0.1-0.3,1-0.3c0.9,0,1.5-0.3,1.5-0.7c0-0.3,4-0.2,4.1,0.2"/>
	<path id="path1" class="st1" d="M28,14l0,12.9l-0.5,0.6L27,28H13.5H0v66v66h55h59v-33.4c0-24.2-0.1-33.5-0.2-33.8
		c-0.2-0.4-0.7-0.6-2-0.6c-0.5,0-0.9-0.1-1.1-0.3c-0.2-0.2-0.6-0.4-0.8-0.4c-0.5-0.1-1.7-0.8-2.2-1.3c-0.2-0.2-0.6-0.6-1-0.8
		s-0.6-0.6-0.6-0.6c0-0.1-0.2-0.3-0.5-0.6c-0.8-0.8-1.3-1.4-1.3-1.6c0-0.1-0.2-0.4-0.4-0.6c-0.2-0.2-0.4-0.5-0.4-0.6
		c0-0.2-0.2-0.4-0.3-0.6c-0.2-0.2-0.4-0.5-0.5-0.8c-0.1-0.3-0.3-0.7-0.4-0.9c-0.2-0.2-0.3-0.7-0.3-1c0-0.3-0.2-1-0.5-1.4l-0.5-0.8
		l-0.1-13.7c-0.1-11.5-0.1-13.7-0.3-14c-0.1-0.2-0.3-0.7-0.4-1.2c-0.1-0.8-0.1-0.8-1.7-2.1c-0.2-0.2-0.7-0.3-1.7-0.4
		c-2.4-0.1-3-0.6-2.8-2.7c0.2-2-0.6-1.9,8.9-1.9c7.8,0,8,0,8.5-0.3c0.3-0.3,0.7-0.3,1.5-0.3h1.1V21.5V0H71H28V14 M53.8,42.1
		c0.1,0.2,0.3,0.4,0.5,0.6c0.3,0.3,0.4,0.6,0.5,2.4c0.1,1.5,0.2,2.2,0.4,2.6c0.3,0.5,0.8,0.7,0.8,0.3c0-0.1,0.3-0.5,0.7-0.8
		c0.4-0.3,0.9-0.8,1.1-1c0.2-0.3,0.6-0.5,0.7-0.5c0.2,0,0.5-0.2,0.7-0.4s0.4-0.4,0.5-0.4c0.1,0,0.3-0.1,0.5-0.3
		c0.2-0.2,0.6-0.4,0.9-0.4c0.4-0.1,0.7-0.2,0.7-0.3c0-0.2,1.1-0.7,1.7-0.7c0.3,0,0.5-0.1,0.5-0.2c0-0.2,0.3-0.3,2-0.5
		c0.5-0.1,1.1-0.2,1.2-0.4c0.5-0.5,6.7-0.4,7.3,0.1c0.4,0.3,0.7,0.4,1.4,0.4c0.8,0,1,0.1,1.2,0.3c0.1,0.2,0.5,0.4,0.9,0.4
		c0.4,0.1,0.8,0.3,1,0.4s0.6,0.4,0.8,0.4c0.3,0.1,0.5,0.3,0.6,0.4c0,0.2,0.3,0.3,0.6,0.4c0.3,0.1,0.7,0.3,0.8,0.4
		c0.1,0.2,0.3,0.3,0.4,0.3c0.2,0,3.8,3.6,3.8,3.8c0,0.1,0.2,0.3,0.4,0.6c0.2,0.3,0.4,0.6,0.4,0.7c0,0.1,0.2,0.3,0.3,0.5
		s0.3,0.4,0.3,0.5c0,0.1,0.2,0.4,0.4,0.8c0.2,0.3,0.5,0.8,0.5,1.1c0.1,0.3,0.2,0.6,0.2,0.6c0.2,0,0.5,0.8,0.6,1.6
		c0.1,0.4,0.2,0.8,0.4,1c0.8,0.9,0.8,13.3,0,14.5c-0.2,0.2-0.3,0.9-0.4,1.5c-0.1,0.6-0.3,1.2-0.4,1.4c-0.1,0.2-0.3,0.6-0.4,0.9
		c-0.1,0.3-0.3,1-0.5,1.4c-0.2,0.4-0.4,0.9-0.4,1.1s-0.1,0.3-0.2,0.4c-0.1,0.1-0.3,0.5-0.5,0.9c-0.2,0.4-0.4,0.8-0.6,0.9
		c-0.1,0.1-0.2,0.3-0.2,0.4c0,0.2-0.1,0.4-0.3,0.5c-0.2,0.1-0.4,0.5-0.5,0.8c-0.1,0.3-0.3,0.6-0.5,0.6c-0.1,0.1-0.2,0.2-0.2,0.3
		c0,0.1-0.2,0.3-0.4,0.5c-0.2,0.1-0.4,0.4-0.5,0.6c-0.1,0.3-2.2,2.5-3,3.1c-0.3,0.2-0.7,0.5-0.9,0.7c-0.2,0.2-0.5,0.4-0.7,0.5
		s-0.4,0.2-0.4,0.3c0,0.1-0.6,0.5-2,1.2c-0.3,0.2-0.7,0.4-0.9,0.5c-0.1,0.1-0.5,0.3-0.9,0.4c-0.4,0.1-0.8,0.3-0.9,0.4
		c-0.1,0.1-0.6,0.3-1,0.3c-0.4,0.1-0.9,0.2-1.2,0.4c-0.3,0.2-0.8,0.3-2.1,0.4c-0.9,0.1-2,0.2-2.4,0.4c-0.9,0.3-4,0.3-4.4-0.1
		c-0.1-0.1-1-0.2-2.1-0.3c-1.5-0.1-1.9-0.1-2.2-0.4c-0.2-0.2-0.7-0.4-1.3-0.4c-0.5-0.1-1.1-0.2-1.2-0.3s-0.3-0.2-0.3-0.2
		c-0.4,0,0,21.8,0.5,24.2c0.5,2.4,0.4,2.3,4.1,2.4c2.3,0,3.1,0.1,3.1,0.3c0,0.1,0.3,0.4,0.5,0.7c0.7,0.9,0.6,2.8-0.3,3.6l-0.7,0.6
		l-1.5-0.1c-0.8-0.1-2.3-0.2-3.3-0.3c-2.4-0.2-14.7-0.2-16.9,0c-5.9,0.5-5.4,0.7-5.4-2.3c0-2.7-0.2-2.6,3.2-2.6h2.7l0.3-0.4
		c0.2-0.2,0.3-0.5,0.3-0.7c0-0.1,0.1-0.4,0.3-0.7c0.5-0.8,0.5-57.6,0-58.2c-0.2-0.2-0.3-0.6-0.3-0.7c0-0.3-1.6-1.9-1.8-1.9
		c-0.1,0-0.4-0.2-0.7-0.4c-0.3-0.2-0.8-0.5-1-0.5c-0.3-0.1-0.5-0.2-0.5-0.3c0-0.1-0.4-0.3-0.7-0.4c-0.4-0.1-0.7-0.3-0.8-0.5
		c-0.1-0.1-0.3-0.3-0.5-0.4c-0.4-0.2-0.4-0.2-0.4-1.4c0-1.4,0.4-2,1.6-2.2c0.4-0.1,0.8-0.3,0.9-0.4c0.1-0.2,0.4-0.3,0.7-0.3
		c0.6,0,1-0.2,1-0.4c0-0.1,0.2-0.3,0.4-0.3s0.6-0.1,0.8-0.2c0.3-0.1,0.6-0.2,0.8-0.4c0.2-0.2,0.6-0.3,1-0.3c0.5,0,0.7-0.1,0.9-0.4
		c0.2-0.3,0.4-0.4,0.8-0.4c0.4,0,0.6-0.1,0.7-0.3c0.1-0.2,0.4-0.3,0.8-0.4c0.4,0,0.9-0.3,1.1-0.5c0.3-0.2,0.8-0.4,1.2-0.5
		c0.4-0.1,0.7-0.2,0.7-0.3c0-0.3,0.4-0.4,1-0.4c0.3,0,0.6-0.1,0.8-0.3C51.8,41.7,53.6,41.6,53.8,42.1 M63.3,49.7
		c-1.4,0.1-1.9,0.2-2.4,0.6c-0.4,0.2-0.8,0.4-1,0.4c-0.3,0-1.3,0.6-1.9,1.1c-0.2,0.2-0.5,0.4-0.7,0.4c-0.1,0-0.3,0.2-0.4,0.4
		c-0.1,0.2-0.3,0.4-0.4,0.4c-0.1,0-0.3,0.2-0.3,0.3c-0.1,0.2-0.3,0.4-0.4,0.5c-0.4,0.2-0.5,27-0.1,27.6c0.1,0.2,0.3,0.6,0.4,1
		c0.3,0.9,1.1,2.1,1.6,2.2c0.2,0.1,0.5,0.2,0.7,0.4c1,1,1.3,1.1,1.6,1.1c0.2,0,0.7,0.2,1,0.4c0.5,0.3,1.1,0.4,1.9,0.5
		c0.7,0.1,1.5,0.2,1.8,0.3c0.7,0.3,2.9,0.3,3.5,0c0.2-0.1,0.9-0.3,1.4-0.4c0.6-0.1,1.1-0.2,1.2-0.4c0.2-0.2,0.4-0.3,0.5-0.3
		c0.7,0,3.1-2.4,3.6-3.6c0.1-0.3,0.3-0.5,0.4-0.5c0.1,0,0.2-0.3,0.3-0.6c0.1-0.3,0.2-0.8,0.4-1c0.2-0.2,0.4-0.8,0.5-1.4
		c0.1-0.5,0.3-1.1,0.4-1.2c0.1-0.1,0.2-0.6,0.2-1.1c0-0.5,0.1-1.7,0.3-2.6c0.4-2.7,0.4-3.7,0.2-5.1c-0.1-0.7-0.3-2.3-0.4-3.5
		c-0.1-1.4-0.2-2.3-0.3-2.4c-0.1-0.1-0.3-0.8-0.4-1.6s-0.3-1.5-0.4-1.6c-0.1-0.1-0.3-0.7-0.4-1.2c-0.1-0.5-0.2-0.9-0.3-1
		c-0.1,0-0.3-0.4-0.4-0.9c-0.1-0.4-0.4-0.9-0.5-1c-0.1-0.1-0.2-0.3-0.2-0.4c0-0.7-3.2-4.4-3.8-4.4c-0.1,0-0.3-0.1-0.4-0.3
		c-0.1-0.2-0.4-0.4-0.7-0.4c-0.3-0.1-0.7-0.2-0.9-0.4c-0.3-0.2-0.8-0.4-1.7-0.4c-0.7-0.1-1.4-0.1-1.5-0.2
		C65.2,49.6,64.3,49.6,63.3,49.7"/>
	<path id="path2" class="st2" d="M28,14l0,12l-0.5,0.5L26.9,27H13.4c0,0-13.4,0.8-13.4,0.9S6.1,28,13.5,28h13.5l0.5-0.6L27,26.9
		l1-13.2V0.6V14 M51.8,42.8c-0.3,0.2-0.8,0.3-1.1,0.3c-0.4,0-0.7,0.1-1,0.4c-0.2,0.2-0.6,0.4-0.8,0.4c-0.2,0-0.6,0.1-0.9,0.3
		s-0.7,0.4-1.1,0.5c-0.4,0.1-0.9,0.3-1.1,0.5c-0.2,0.2-0.7,0.4-0.9,0.4c-0.2,0-0.6,0.1-0.7,0.3c-0.2,0.2-0.6,0.4-0.9,0.4
		c-0.3,0.1-0.8,0.2-0.9,0.4c-0.2,0.2-0.6,0.3-0.9,0.4c-0.3,0.1-0.8,0.2-1,0.4c-0.2,0.2-0.7,0.4-1,0.4c-0.3,0.1-0.7,0.3-0.9,0.4
		c-0.2,0.2-0.5,0.3-0.7,0.3c-0.2,0-0.7,0.2-1.1,0.5c-1.3,1.1-0.7,2.8,1.2,3.4c0.2,0.1,0.6,0.3,1,0.5c0.3,0.2,0.7,0.4,0.8,0.4
		c0.1,0,0.3,0.2,0.5,0.3s0.4,0.3,0.5,0.3c0.4,0,1.8,1.5,2.3,2.4l0.2,1l1,28.8v28.8l-1.3,1c-0.7,1.3-0.6,1.2-3.7,1.2
		c-3.1,0-3-0.1-3,2.1c0,2.4,0,2.4,2.6,2.1c2.2-0.2,21.6-0.1,23.3,0.1c1.6,0.2,2.3-1.6,1.4-3.6L63,118h-3h-3l-0.5-0.9
		c-0.3-0.3-0.5-0.7-0.5-0.9s-0.1-0.8-0.3-1.3c-0.3-1-0.6-23.7-0.3-24.2c0.2-0.3,0.5-0.3,0.9,0.1c0.1,0.1,0.7,0.3,1.1,0.4
		c0.5,0.1,1.2,0.3,1.5,0.4c2,0.9,10.7,0.8,12.5-0.1c0.4-0.2,0.8-0.3,1.1-0.3c0.2,0,0.8-0.2,1.2-0.4s0.9-0.4,1.1-0.4s0.5-0.1,0.7-0.3
		c0.2-0.2,0.6-0.4,0.8-0.4c0.2-0.1,0.6-0.3,0.9-0.5c0.3-0.2,0.6-0.4,0.7-0.4s0.3-0.2,0.5-0.3c0.2-0.2,0.4-0.3,0.5-0.3
		c0.2,0,0.3-0.1,2.7-2.4c2-2,3-3.1,3.4-3.9c0.2-0.5,0.6-1,1.2-1.9c0.2-0.2,0.3-0.5,0.3-0.6c0-0.1,0.2-0.6,0.5-1.2
		c0.9-2,1.1-2.4,1.4-3.3c0.2-0.5,0.4-1.2,0.4-1.7c0.1-0.5,0.3-1.2,0.4-1.6c0.8-2.6,0.8-12.3,0-13.9c-0.1-0.3-0.3-0.7-0.3-1
		c0-0.3-0.2-0.9-0.4-1.3c-0.2-0.4-0.4-0.9-0.4-1c0-0.1-0.1-0.4-0.3-0.6c-0.2-0.2-0.4-0.6-0.4-0.8c-0.1-0.2-0.3-0.6-0.5-0.8
		c-0.2-0.2-0.4-0.5-0.4-0.6s-0.1-0.3-0.2-0.3c-0.1-0.1-0.4-0.4-0.5-0.7c-0.6-1.2-4.4-4.7-5-4.7c-0.1,0-0.3-0.2-0.5-0.4
		c-0.2-0.2-0.5-0.5-0.8-0.5c-0.3-0.1-0.6-0.3-0.8-0.4C78.3,44.1,78,44,77.7,44c-0.2,0-0.6-0.2-0.8-0.4c-0.3-0.3-0.7-0.4-1.6-0.5
		c-0.7-0.1-1.5-0.2-1.9-0.4c-1-0.4-4.7-0.4-5.5,0c-0.3,0.1-1.2,0.3-1.9,0.4c-0.9,0.1-1.4,0.2-1.8,0.5c-0.3,0.2-0.7,0.4-1,0.4
		c-0.3,0-0.7,0.1-0.9,0.3c-0.2,0.2-0.6,0.4-0.8,0.4c-0.2,0.1-0.7,0.3-1,0.5c-0.3,0.2-0.7,0.4-0.8,0.4c-0.1,0-0.4,0.2-0.6,0.4
		c-0.2,0.2-0.7,0.6-1,0.8c-0.3,0.2-1,0.8-1.5,1.3c-1.5,1.6-2,1.1-2.2-2.1C54.2,42.8,53.4,41.8,51.8,42.8 M53.4,43.1
		c0,0.2,0.2,0.5,0.4,0.8c0.2,0.3,0.3,0.9,0.4,2.7c0.1,2.4,0.3,2.9,0.7,2.9c0.4,0,1.4-0.6,1.4-0.9c0-0.1,0.1-0.3,0.2-0.3
		s0.3-0.1,0.5-0.3c0.1-0.2,0.5-0.4,0.8-0.6s0.5-0.4,0.5-0.5c0-0.1,0.2-0.2,0.5-0.3c0.3-0.1,0.5-0.3,0.6-0.5c0.1-0.2,0.3-0.3,0.5-0.3
		c0.2,0,0.6-0.2,0.8-0.4c0.2-0.2,0.6-0.4,0.8-0.4c0.2,0,0.6-0.2,0.8-0.4c0.3-0.3,0.6-0.4,1-0.4c0.3,0,0.8-0.1,1-0.3
		c0.3-0.2,0.8-0.3,1.8-0.4c0.9-0.1,1.6-0.2,2-0.4c0.8-0.4,4-0.5,4.5-0.1c0.4,0.3,2,0.6,2.9,0.6c0.4,0,0.7,0.1,0.9,0.3
		c0.2,0.2,0.5,0.3,0.9,0.3c0.4,0,0.7,0.1,0.9,0.4c0.2,0.3,0.5,0.4,0.8,0.4c0.3,0,0.5,0.1,0.6,0.2c0.1,0.2,0.7,0.7,1.7,1.3
		c0.2,0.1,0.8,0.6,1.2,1c0.4,0.4,0.9,0.8,0.9,0.8s0.2,0.1,0.2,0.2c0,0.1,0.1,0.3,0.3,0.5c0.8,0.9,1.2,1.3,1.2,1.4
		c0,0.1,0.2,0.4,0.5,0.7c0.3,0.3,0.5,0.6,0.5,0.7c0,0.1,0.1,0.2,0.2,0.2c0.1,0,0.3,0.3,0.5,0.7c0.2,0.4,0.4,0.8,0.6,0.9
		c0.1,0.1,0.3,0.5,0.3,0.8c0,0.3,0.2,0.7,0.3,1c0.2,0.3,0.4,0.9,0.5,1.6c0.1,0.6,0.3,1.3,0.4,1.5c0.4,0.6,0.4,10.6,0,11.4
		c-0.1,0.3-0.4,1.1-0.5,1.9c-0.1,0.8-0.3,1.5-0.4,1.7c-0.1,0.2-0.3,0.7-0.4,1.2c-0.1,0.5-0.2,1-0.4,1.2c-0.2,0.2-0.3,0.5-0.4,0.7
		c-0.1,0.2-0.2,0.6-0.3,0.7c-0.1,0.1-0.2,0.4-0.3,0.7c-0.1,0.2-0.3,0.6-0.4,0.8c-0.1,0.2-0.4,0.7-0.5,1c-0.2,0.3-0.4,0.7-0.6,0.8
		c-0.2,0.1-0.3,0.5-0.4,0.8c-0.1,0.3-0.2,0.6-0.3,0.6c-0.1,0-0.3,0.2-0.3,0.4c-0.1,0.2-0.2,0.4-0.2,0.4c-0.1,0-0.4,0.3-0.7,0.6
		c-0.4,0.5-2.6,2.6-3.8,3.8c-0.3,0.3-1,0.7-1.9,1.1c-0.3,0.1-0.6,0.4-0.6,0.5c-0.1,0.1-0.3,0.3-0.7,0.3c-0.3,0.1-0.7,0.3-0.9,0.4
		c-0.2,0.2-0.5,0.3-0.7,0.3c-0.2,0-0.7,0.2-1.1,0.4C72.8,90.8,72.3,91,72,91c-0.3,0-0.8,0.2-1.2,0.3c-1.5,0.7-10.3,0.8-11.4,0.1
		c-0.2-0.1-0.7-0.3-1.2-0.3s-1.2-0.3-1.7-0.5c-1.7-0.8-1.6-1.7-1.5,12.3l0,11.9l0.4,0.8c0.2,0.4,0.4,1,0.4,1.2c0,1.1,0.7,1.3,4,1.3
		h2.4l0.2,0.4c0.2,0.6,0.2,3,0,3.2c-0.1,0.1-2.5,0.1-6.7,0c-3.6-0.1-9.4-0.1-12.9,0c-3.5,0.1-6.5,0.1-6.5,0.1
		c-0.1,0-0.1-0.9-0.1-1.9V118h2.8c3.1,0,3,0,3.7-1.2l0.5-0.7V86.4c0-26.9,0-29.6-0.3-29.8c-0.1-0.1-0.3-0.4-0.4-0.6
		c-0.2-0.5-1.6-1.8-2-1.9c-0.2,0-0.3-0.1-0.4-0.2c-0.1-0.1-0.4-0.4-0.8-0.6c-0.4-0.2-0.7-0.4-0.8-0.5c-0.1-0.1-0.2-0.2-0.4-0.2
		c-0.2,0-0.5-0.2-0.8-0.4c-0.3-0.2-0.6-0.4-0.8-0.5c-0.3-0.1-0.4-0.2-0.4-1c0-1,0.3-1.4,1.6-1.7c0.4-0.1,0.8-0.3,0.8-0.4
		c0-0.1,0.4-0.3,0.8-0.3c0.4-0.1,0.9-0.2,1.1-0.4c0.2-0.2,0.7-0.4,1.1-0.4s0.7-0.3,0.8-0.4c0.1-0.2,0.4-0.3,0.7-0.3
		c0.3,0,0.7-0.2,1-0.4c0.2-0.2,0.7-0.4,0.9-0.4c0.2,0,0.6-0.1,0.9-0.3s0.7-0.4,1.1-0.5c0.4-0.1,0.8-0.3,1-0.5
		c0.2-0.2,0.4-0.3,0.9-0.3s0.7-0.1,0.8-0.3c0.1-0.2,0.4-0.4,1-0.4c0.5-0.1,1-0.3,1.2-0.4c0.5-0.4,1.3-0.4,1.4,0.1 M111.9,43.7
		c-0.5,0.3-0.9,0.3-8.4,0.3c-9,0-8.3-0.2-8.2,1.8l0,1.3l0.8,0.4c0.4,0.2,1.3,0.4,1.9,0.5c1.3,0.1,2.8,1.2,3,2.2
		c0.1,0.3,0.2,0.8,0.4,1c0.2,0.4,0.3,2,0.4,14.2c0.1,12.6,0.1,13.8,0.4,14.3c0.2,0.3,0.3,0.9,0.4,1.2c0.1,0.4,0.3,1.1,0.5,1.5
		c0.2,0.4,0.4,0.9,0.4,1c0,0.1,0.1,0.4,0.2,0.5c0.1,0.1,0.4,0.5,0.5,0.9c1,2,3.5,4.9,4.7,5.5c0.3,0.2,0.7,0.4,0.8,0.6
		c0.1,0.1,0.3,0.3,0.5,0.3c0.2,0,0.5,0.1,0.8,0.3c0.3,0.2,0.8,0.4,1.1,0.4c0.3,0.1,0.9,0.1,1.2,0.2c0.4,0.1,0.6,0,0.5-0.1
		c-0.1-0.1-0.5-0.2-1.1-0.3c-0.5-0.1-1.1-0.2-1.2-0.3c-0.1-0.1-0.6-0.3-1-0.4c-0.4-0.1-0.7-0.3-0.7-0.4s-0.2-0.3-0.5-0.4
		c-0.3-0.1-0.7-0.4-0.9-0.6c-0.2-0.2-0.4-0.3-0.5-0.3c-0.2,0-0.6-0.5-1.7-1.8c-0.3-0.4-0.7-0.9-0.9-1.1c-0.2-0.2-0.3-0.4-0.3-0.5
		s-0.1-0.3-0.3-0.5c-0.2-0.2-0.4-0.5-0.4-0.7c-0.1-0.2-0.3-0.6-0.4-0.8c-0.2-0.2-0.3-0.6-0.4-0.9s-0.2-0.7-0.4-0.9
		c-0.1-0.2-0.3-0.7-0.4-1.2c-0.1-0.5-0.3-1.3-0.4-1.7c-0.3-0.7-0.3-1.8-0.4-14.4l-0.1-13.7l-0.4-0.7c-0.2-0.4-0.4-0.8-0.4-0.9
		c0-0.6-1.7-1.7-2.8-1.8c-0.6-0.1-1.2-0.2-1.4-0.4c-0.2-0.1-0.5-0.3-0.7-0.3c-0.6,0-0.7-0.3-0.7-1.6c0-1.5-0.8-1.4,8.5-1.4
		c6.7,0,8,0,8.3-0.2c0.2-0.1,0.7-0.2,1.1-0.2c0.4,0,0.8-0.1,0.8-0.2C114.2,43.2,112.4,43.3,111.9,43.7 M63.1,49
		c-0.4,0.2-1.1,0.4-1.6,0.4c-0.7,0.1-1.1,0.2-1.2,0.4c-0.2,0.2-0.4,0.3-0.6,0.3c-0.2,0-0.6,0.2-0.9,0.4C58.4,50.8,58.1,51,58,51
		c-0.1,0-0.3,0.2-0.5,0.4c-0.2,0.2-0.4,0.4-0.5,0.4c-0.1,0-0.6,0.5-1.2,1l-1,1l1,14v14l-0.5,0.4c0.2,0.2,0.4,0.6,0.4,0.8
		c0,0.6,2,2.6,2.6,2.6c0.1,0,0.4,0.2,0.6,0.4s0.5,0.4,0.7,0.4c0.2,0,0.5,0.2,0.8,0.3c0.3,0.2,0.8,0.4,1.1,0.4c0.4,0.1,1,0.2,1.4,0.4
		c1.1,0.5,5.7,0.5,6.6,0c0.3-0.2,0.9-0.4,1.1-0.4c0.3-0.1,0.7-0.3,0.8-0.4c0.2-0.2,0.4-0.3,0.5-0.3c0.5,0,3.4-2.9,3.4-3.4
		c0-0.1,0.2-0.4,0.3-0.5c0.2-0.2,0.4-0.5,0.4-0.8c0.1-0.3,0.2-0.6,0.3-0.7c0.1-0.1,0.3-0.5,0.4-1c0.1-0.5,0.3-1.1,0.5-1.3
		c0.3-0.4,0.4-0.7,0.4-1.8c0-1,0.1-1.5,0.4-2.1c0.6-1.2,0.5-6.8,0-8.2c-0.3-0.7-0.4-1.2-0.4-2.5c0-1.4-0.1-1.7-0.3-2.1
		c-0.2-0.3-0.4-0.9-0.5-1.6c-0.1-0.7-0.3-1.3-0.4-1.4c-0.1-0.1-0.3-0.5-0.4-0.9c-0.1-0.4-0.3-1-0.5-1.3c-0.2-0.3-0.4-0.7-0.4-0.8
		c0-0.1-0.2-0.4-0.3-0.7c-0.2-0.2-0.3-0.5-0.3-0.6c0-0.1-0.2-0.4-0.4-0.5s-0.4-0.4-0.4-0.6c0-0.1-0.2-0.4-0.3-0.5
		c-0.2-0.1-0.3-0.3-0.3-0.4c0-0.3-1.8-1.9-2.1-1.9c-0.1,0-0.3-0.1-0.4-0.3c-0.1-0.2-0.3-0.4-0.5-0.4c-0.2-0.1-0.6-0.3-0.8-0.4
		c-0.2-0.2-0.8-0.4-1.3-0.4c-0.5-0.1-1.1-0.2-1.4-0.4C65.9,48.5,64,48.6,63.1,49 M66.4,49.3c0.6,0.2,1.3,0.3,1.5,0.3
		c0.5,0,2.1,0.8,2.4,1.2c0.1,0.2,0.3,0.3,0.4,0.3c0.5,0,3,2.8,3.6,4c1.2,2.3,1.5,2.9,1.5,3.3c0,0.2,0.2,0.7,0.4,1.1
		c0.2,0.4,0.4,1.1,0.4,1.4s0.2,1,0.3,1.4c0.2,0.5,0.4,1.3,0.5,2.7c0.1,1.1,0.3,2.5,0.4,3.1c0.3,1.6,0.3,4.7,0,6
		c-0.1,0.5-0.3,1.7-0.4,2.5c-0.1,1-0.3,1.8-0.5,2.2c-0.2,0.4-0.4,0.9-0.4,1.2s-0.1,0.6-0.2,0.7c-0.1,0.1-0.3,0.5-0.4,0.9
		c-0.1,0.4-0.3,0.8-0.5,0.9c-0.2,0.2-0.3,0.4-0.3,0.5c0,0.4-2,2.7-2.3,2.7c-0.1,0-0.3,0.1-0.3,0.2c0,0.1-0.4,0.4-0.7,0.5
		c-0.4,0.2-0.7,0.4-0.7,0.4c0,0.1-0.3,0.2-0.7,0.3c-0.4,0.1-1.1,0.3-1.6,0.5c-1.2,0.4-3.5,0.4-5.2,0c-0.7-0.2-1.6-0.4-2-0.4
		c-0.4-0.1-0.9-0.3-1.1-0.4c-0.2-0.2-0.5-0.3-0.7-0.3c-0.2,0-0.6-0.2-0.9-0.5c-0.3-0.3-0.9-0.6-1.2-0.9c-1-0.7-1.7-1.5-1.9-2.2
		c-0.1-0.4-0.3-0.8-0.4-0.9c-0.4-0.4-0.4-2.9-0.4-15.7l0.1-12.4l1.3-1.3c0.7-0.7,1.5-1.4,1.8-1.5c0.3-0.1,0.5-0.2,0.5-0.3
		c0-0.1,0.4-0.3,0.8-0.4c0.4-0.2,0.9-0.4,1.1-0.5s0.5-0.2,0.8-0.2c0.3,0,1.1-0.1,1.7-0.3C64.4,48.9,65,48.9,66.4,49.3"/>
	<path id="path3" class="st3" d="M28,13v13.9l-0.5,0.7L26.9,28H13.4C6,28.1,0.3,28.1,0.6,28.2c0.3,0.1,6.5,0.1,13.7,0.8h13.1
		l0.5-1.3l1.2-0.6V13.9c-0.7-7.3-0.7-13.4-0.8-13.6c-0.1-0.2-0.1,5.7-0.1,13.1 M51.7,42.3c-0.1,0-0.4,0.2-0.5,0.4
		C51,42.9,50.6,43,50.3,43c-0.6,0-1,0.2-1,0.4c0,0.1-0.3,0.2-0.7,0.3c-0.4,0.1-0.9,0.3-1.2,0.5c-0.3,0.2-0.8,0.4-1.1,0.5
		c-0.4,0.1-0.7,0.2-0.8,0.4c-0.1,0.2-0.4,0.3-0.7,0.3c-0.4,0-0.6,0.1-0.8,0.4c-0.2,0.3-0.4,0.4-0.9,0.4c-0.4,0-0.8,0.1-1,0.3
		c-0.2,0.2-0.5,0.4-0.8,0.4c-0.3,0.1-0.6,0.1-0.8,0.2S40,47.3,40,47.4c0,0.3-0.4,0.4-1,0.4c-0.3,0-0.6,0.1-0.7,0.3
		c-0.1,0.2-0.5,0.4-0.9,0.4c-1.2,0.2-1.6,0.8-1.6,2.2c0,1.2,0,1.2,0.4,1.4c0.2,0.1,0.5,0.3,0.5,0.4c0.1,0.1,0.4,0.3,0.8,0.5
		c0.4,0.1,0.7,0.3,0.7,0.4c0,0.1,0.3,0.3,0.5,0.3c0.3,0.1,0.7,0.3,1,0.5c0.3,0.2,0.6,0.4,0.7,0.4c0.2,0,1.8,1.7,1.8,1.9
		c0,0.1,0.2,0.4,0.3,0.7c0.5,0.7,0.4,57.5,0,58.2c-0.2,0.2-0.3,0.6-0.3,0.7c0,0.1-0.2,0.4-0.3,0.7l-0.3,0.1h-2.7
		c-3.4,0.3-3.2,0.2-3.2,2.9c0,3-0.4,2.8,5.4,2.3c2.2-0.2,14.5-0.2,16.9,0c1,0.1,2.5,0.2,3.3,0.3l1.5,0.1l0.7-0.6
		c0.9-0.8,1-2.7,0.3-3.6c-0.2-0.3-0.4-0.6-0.5-0.7c-0.1-0.2-0.8-0.2-3.1-0.3c-3.7-0.1-3.6,0-4.1-2.4c-0.5-2.3-0.9-24.2-0.5-24.2
		c0.1,0,0.2,0.1,0.3,0.2s0.7,0.3,1.2,0.3c0.7,0.1,1.1,0.2,1.3,0.4c0.3,0.3,0.5,0.3,1.7,0.3l1.4,0L60.3,92c-0.8-0.1-1.4-0.2-1.7-0.4
		c-0.2-0.2-0.8-0.3-1.2-0.4s-1-0.2-1.2-0.3c-0.9-0.6-0.9-1.3-0.8,11.4c0,10.3,0.1,11.7,0.3,12.4c0.2,0.4,0.3,1,0.4,1.4
		c0.1,0.4,0.3,0.8,0.6,1.1l0.5-0.2h3h3l0.2,1.2c0.1,0.3,0.3,0.5,0.4,0.5c0.1,0,0.1,0.6,0.1,1.3c0,1.8-0.5,2.3-1.9,2.1
		c-5.2-0.5-19.2-0.5-24.6,0l-1,0.1l-0.3-0.6c-0.3-0.7-0.2-3.4,0.1-3.8c0.1-0.1,1.2-0.2,3-0.3c2.7-0.1,3.2-0.2,3.2-0.6
		c0-0.1,0.2-0.6,0.4-1l0.2-0.8l0-28.7V57.7l-0.3-1c-0.3-0.5-0.7-1.2-1-1.5c-0.7-0.7-2.1-1.6-2.4-1.6c-0.1,0-0.5-0.2-0.8-0.4
		s-0.6-0.4-0.7-0.4s-0.5-0.2-1-0.5L36,51.8v-1c0-1.2,0.5-1.8,1.7-2c0.3-0.1,0.7-0.2,0.8-0.4c0.2-0.2,0.5-0.3,0.8-0.3
		c0.3,0,0.6-0.1,0.8-0.3c0.2-0.2,0.7-0.4,1-0.5c0.4-0.1,0.9-0.3,1.1-0.5c0.2-0.2,0.7-0.4,0.9-0.4c0.2,0,0.6-0.1,0.7-0.3
		c0.2-0.2,0.6-0.4,0.9-0.4c0.4-0.1,0.8-0.2,0.9-0.4c0.2-0.2,0.6-0.4,1-0.4c0.4-0.1,0.8-0.2,1-0.4c0.2-0.2,0.6-0.4,0.9-0.4
		c0.3-0.1,0.8-0.3,0.9-0.4c0.2-0.2,0.5-0.3,0.8-0.3s0.8-0.2,1.3-0.4c1.9-1,2.7-0.2,2.9,3.1c0.2,3.3,0.5,3.6,2,2.2
		c1-1,1.8-1.6,2.1-1.7c0.1,0,0.4-0.2,0.7-0.5c0.3-0.2,0.5-0.4,0.6-0.4c0.1,0,0.4-0.2,0.8-0.4c0.3-0.2,0.7-0.4,0.9-0.4
		s0.4-0.1,0.6-0.3c0.2-0.2,0.6-0.4,1-0.4c0.4-0.1,0.8-0.2,1-0.4c0.3-0.2,0.8-0.3,1.6-0.4c0.7,0,1.4-0.2,1.8-0.4c1-0.6,4.6-0.6,6.2,0
		c0.7,0.2,1.6,0.4,2,0.4c0.5,0,0.9,0.1,1.1,0.3c0.2,0.2,0.6,0.4,0.9,0.4c0.3,0.1,0.7,0.3,0.9,0.4c0.2,0.2,0.4,0.3,0.6,0.3
		s0.6,0.2,0.9,0.5c0.3,0.3,0.6,0.5,0.7,0.5c0.5,0,4.4,3.7,4.8,4.6c0.1,0.3,0.3,0.6,0.4,0.7c0.7,0.8,1.2,1.6,1.2,1.8
		c0,0.2,0.1,0.4,0.3,0.6c0.2,0.2,0.4,0.6,0.5,1c0.1,0.4,0.3,0.9,0.4,1c0.1,0.2,0.2,0.5,0.2,0.7c0,0.2,0.2,0.8,0.3,1.3
		c0.9,2.3,0.9,11.7,0,14.2c-0.2,0.5-0.3,1.2-0.3,1.5s-0.2,0.8-0.3,1.2s-0.3,0.8-0.3,0.9s-0.2,0.7-0.4,1.1c-0.2,0.5-0.4,0.9-0.4,1
		c0,0.2-0.9,2-1.7,3.3c-0.2,0.4-0.5,0.9-0.7,1.1c-0.7,1.3-5,5.7-6.6,6.6c-0.4,0.2-1,0.6-1.3,0.9c-0.4,0.2-0.8,0.4-0.9,0.4
		c-0.1,0-0.5,0.2-0.8,0.4c-0.3,0.2-0.7,0.4-0.9,0.4s-0.4,0.1-0.7,0.3s-0.7,0.3-1.1,0.4c-0.4,0.1-1,0.3-1.3,0.4
		c-0.3,0.2-1,0.3-1.7,0.4l-1.2,0.1l1.3,0c1.1,0,1.4,0,1.8-0.3c0.3-0.2,0.8-0.4,1.2-0.4c0.4-0.1,0.9-0.2,1-0.3
		c0.1-0.1,0.6-0.3,0.9-0.4c0.4-0.1,0.8-0.3,0.9-0.4c0.1-0.1,0.5-0.4,0.9-0.5c1.4-0.7,2-1.1,2-1.2c0-0.1,0.2-0.2,0.4-0.3
		s0.5-0.3,0.7-0.5c0.2-0.2,0.6-0.5,0.9-0.7c0.8-0.6,2.9-2.7,3-3.1c0.1-0.2,0.3-0.4,0.5-0.6c0.2-0.1,0.4-0.4,0.4-0.5
		c0-0.1,0.1-0.3,0.2-0.3c0.1-0.1,0.3-0.3,0.5-0.6c0.1-0.3,0.4-0.7,0.5-0.8c0.2-0.1,0.3-0.4,0.3-0.5c0-0.2,0.1-0.4,0.2-0.4
		c0.1-0.1,0.4-0.5,0.6-0.9c0.2-0.4,0.4-0.8,0.5-0.9c0.1-0.1,0.2-0.2,0.2-0.4s0.2-0.6,0.4-1.1c0.2-0.4,0.5-1.1,0.5-1.4
		c0.1-0.3,0.2-0.8,0.4-0.9c0.1-0.2,0.3-0.8,0.4-1.4c0.1-0.6,0.3-1.3,0.4-1.5c0.8-1.2,0.8-13.7,0-14.5c-0.2-0.2-0.3-0.6-0.4-1
		c-0.1-0.8-0.4-1.6-0.6-1.6c-0.1,0-0.2-0.2-0.2-0.6c-0.1-0.3-0.3-0.8-0.5-1.1c-0.2-0.3-0.4-0.6-0.4-0.8c0-0.1-0.2-0.3-0.3-0.5
		s-0.3-0.4-0.3-0.5c0-0.1-0.2-0.4-0.4-0.7c-0.2-0.3-0.4-0.5-0.4-0.6c0-0.2-3.6-3.8-3.8-3.8c-0.1,0-0.2-0.1-0.4-0.3
		c-0.1-0.2-0.5-0.4-0.8-0.4c-0.3-0.1-0.6-0.2-0.6-0.4c0-0.2-0.3-0.3-0.6-0.4c-0.3-0.1-0.6-0.3-0.8-0.4s-0.6-0.4-1-0.4
		c-0.4-0.1-0.7-0.2-0.9-0.4c-0.2-0.2-0.4-0.3-1.2-0.3c-0.8,0-1.1-0.1-1.4-0.4c-0.6-0.5-6.8-0.6-7.3-0.1c-0.2,0.2-0.7,0.3-1.2,0.4
		c-1.7,0.2-2,0.3-2,0.5c0,0.2-0.2,0.2-0.5,0.2c-0.6,0-1.7,0.4-1.7,0.7c0,0.1-0.3,0.2-0.7,0.3c-0.4,0.1-0.8,0.2-0.9,0.4
		c-0.2,0.2-0.4,0.3-0.5,0.3c-0.1,0-0.4,0.2-0.5,0.4s-0.5,0.4-0.7,0.4c-0.2,0-0.5,0.2-0.7,0.5c-0.2,0.3-0.7,0.7-1.1,1
		c-0.4,0.3-0.7,0.7-0.7,0.8c0,0.4-0.5,0.2-0.8-0.3c-0.2-0.4-0.3-1.2-0.4-2.6c-0.1-1.9-0.1-2.1-0.5-2.4c-0.2-0.2-0.4-0.5-0.5-0.6
		C53.7,42.2,52.3,42,51.7,42.3 M111.5,43.4c-0.4,0.3-0.7,0.3-8.2,0.3c-9.1,0-8.4-0.2-8.6,1.8c-0.1,2,0.5,2.7,2.4,2.6l1,0L97.3,48
		c-2-0.3-2.3-0.7-2.3-2.2c0-1.9-0.8-1.7,8.2-1.8l7.8,0l0.8-0.4c0.6-0.3,1-0.4,1.5-0.3c0.4,0,0.7,0,0.7-0.1
		C114,42.9,111.9,43,111.5,43.4 M98.2,48.3c0.2,0,0.4,0.2,0.6,0.3c1.4,1.2,1.5,1.3,1.6,2.1c0.1,0.4,0.2,1,0.3,1.2
		c0.2,0.3,0.2,2.6,0.3,14l0.1,13.7l0.5,0.8c0.5,0.9,0.5,0.5,0-0.8c-0.3-0.7-0.3-2-0.3-14c-0.1-13.3-0.1-13.8-0.5-14.6
		c-0.1-0.2-0.2-0.6-0.2-0.8c0-0.2-0.3-0.6-0.6-0.9c-0.3-0.3-0.7-0.7-0.9-0.9c-0.1-0.2-0.5-0.3-0.7-0.3C98,48.2,98,48.2,98.2,48.3
		 M63.1,49.4c-0.4,0.1-1,0.2-1.4,0.2c-0.8,0-3.7,1.4-4.4,2.1c-0.5,0.5-0.2,0.5,0.4,0c0.6-0.5,1.6-1.1,1.9-1.1c0.1,0,0.6-0.2,0.9-0.4
		c1.3-0.8,6.9-0.8,7.7-0.1c0.2,0.2,0.6,0.3,0.8,0.4c0.3,0.1,0.6,0.2,0.7,0.4c0.1,0.2,0.3,0.3,0.4,0.3c0.6,0,3.8,3.7,3.8,4.4
		c0,0.1,0.1,0.3,0.2,0.4c0.1,0.1,0.4,0.6,0.5,1c0.1,0.4,0.3,0.8,0.4,0.9c0.1,0,0.2,0.5,0.3,1c0.1,0.5,0.3,1,0.4,1.2
		c0.1,0.1,0.3,0.9,0.4,1.6s0.3,1.4,0.4,1.6c0.1,0.2,0.3,1.1,0.3,2.4c0.1,1.2,0.2,2.8,0.4,3.5c0.3,1.4,0.2,2.4-0.2,5.1
		c-0.1,1-0.3,2.1-0.3,2.6c0,0.5-0.1,1-0.2,1.1c-0.1,0.1-0.3,0.7-0.4,1.2c-0.1,0.5-0.3,1.2-0.5,1.4c-0.2,0.2-0.3,0.6-0.4,1
		c-0.1,0.3-0.2,0.6-0.3,0.6c-0.1,0-0.3,0.2-0.4,0.5c-0.6,1.3-3,3.6-3.6,3.6c-0.1,0-0.3,0.1-0.5,0.3c-0.2,0.2-0.6,0.4-1.2,0.4
		c-0.5,0.1-1.2,0.2-1.4,0.4c-0.6,0.3-2.8,0.3-3.5,0c-0.3-0.1-1.1-0.3-1.8-0.3c-0.9-0.1-1.5-0.2-1.9-0.5c-0.4-0.2-0.8-0.4-1-0.4
		c-0.3,0-0.6-0.2-1.6-1.1c-0.2-0.2-0.5-0.4-0.7-0.4c-0.4-0.1-1.3-1.3-1.6-2.2c-0.1-0.4-0.3-0.8-0.4-1c-0.4-0.6-0.3-27.4,0.1-27.6
		c0.2-0.1,0.4-0.3,0.4-0.5c0.1-0.2,0.2-0.3,0.3-0.3c0.1,0,0.3-0.2,0.4-0.5c0.2-0.3,0-0.2-0.7,0.5L55,54l0,13.7c0,13,0,13.7,0.3,14.2
		c0.2,0.3,0.4,0.8,0.5,1.1c0.2,0.7,1,1.5,1.9,2.2c0.3,0.2,0.8,0.6,1.1,0.8c0.3,0.2,0.6,0.4,0.7,0.4s0.5,0.2,1,0.4
		c0.4,0.2,1.2,0.5,1.8,0.6c0.5,0.1,1.3,0.2,1.7,0.3c1.2,0.3,4,0.2,4.9-0.1c0.5-0.2,1-0.3,1.2-0.3c0.2,0,0.5-0.1,0.6-0.2
		c0.1-0.1,0.5-0.4,0.8-0.5c0.6-0.3,0.7-0.4,1.8-1.4c1.2-1.1,3.2-4.6,3.2-5.5c0-0.2,0.1-0.6,0.3-1c0.2-0.4,0.4-1.2,0.4-1.9
		c0.1-0.7,0.3-2,0.4-2.8c0.3-1.6,0.4-3,0.2-4.3c-0.3-1.9-0.5-3.2-0.7-4.9c-0.1-1-0.3-1.9-0.4-2.2c-0.1-0.2-0.3-0.8-0.3-1.3
		c-0.1-0.5-0.2-1.2-0.4-1.5c-0.2-0.4-0.4-0.9-0.4-1.2c-0.1-0.3-0.2-0.7-0.3-0.8c-0.1-0.1-0.3-0.5-0.3-0.7c-0.1-0.2-0.3-0.7-0.5-1.1
		c-0.2-0.3-0.4-0.7-0.4-0.8c0-0.1-0.2-0.4-0.4-0.7c-0.2-0.3-0.6-0.7-0.8-1c-0.6-0.8-2.2-2.3-2.4-2.3c-0.1,0-0.3-0.1-0.3-0.2
		c0-0.1-0.3-0.3-0.6-0.4c-0.3-0.1-0.7-0.3-0.9-0.5c-0.2-0.2-0.7-0.3-1-0.3c-0.3,0-1-0.1-1.4-0.2C65.1,49.1,64,49.1,63.1,49.4
		 M102.3,81.9c0,0.3,0.1,0.7,0.3,0.9c0.2,0.2,0.4,0.6,0.4,0.9c0.1,0.3,0.3,0.7,0.4,0.8c0.2,0.2,0.3,0.4,0.3,0.6
		c0,0.2,0.2,0.4,0.4,0.6c0.2,0.2,0.4,0.5,0.4,0.6c0,0.3,0.5,0.9,1.2,1.6c0.3,0.3,0.5,0.5,0.5,0.6c0,0.1,0.3,0.4,0.6,0.6
		c0.3,0.3,0.8,0.7,1,0.8c0.5,0.5,1.6,1.2,2.1,1.3c0.2,0.1,0.6,0.3,0.8,0.4c0.3,0.2,0.6,0.3,1.2,0.3l0.9,0l-0.8-0.1
		c-0.7-0.1-1.7-0.5-2.5-1c-0.1-0.1-0.5-0.3-0.8-0.5c-1-0.6-3.1-2.7-3.9-4.2c-0.1-0.2-0.3-0.4-0.4-0.6c-0.2-0.3-0.7-1.1-1.1-2
		c-0.1-0.2-0.3-0.7-0.5-1.1c-0.2-0.4-0.3-0.8-0.4-0.9C102.4,81.5,102.4,81.7,102.3,81.9 M62.1,92.3c0.3,0,0.6,0.2,0.7,0.3
		c0.4,0.3,3.4,0.4,4.5,0.1c1.4-0.4,1.4-0.4,0.2-0.3c-1.4,0.1-3.1,0.1-4.7,0C62.1,92.2,61.8,92.2,62.1,92.3 M113.2,92.3
		c0.2,0.1,0.4,0.2,0.5,0.3c0.1,0.1,0.1,0.1,0.1-0.1C113.8,92.4,113.5,92.2,113.2,92.3C113,92.2,113,92.2,113.2,92.3"/>
	<path id="path4" class="st4" d="M28.1,14c0,7.1,0,10,0,6.5s0-9.4,0-12.9S28.1,6.9,28.1,14 M27.4,27.5l-0.5,0.5L27.4,27.5
		c0.6-0.4,0.7-0.5,0.5-0.5C27.9,27,27.7,27.2,27.4,27.5 M7.3,28.1c3.6,0,9.5,0,13.1,0s0.7,0-6.5,0C6.6,28.1,3.7,28.1,7.3,28.1
		 M52.5,42.4c0.2,0,0.4,0,0.6,0c0.2,0,0-0.1-0.3-0.1S52.4,42.4,52.5,42.4 M69.6,42.5c0.6,0,1.5,0,2.1,0c0.6,0,0.1-0.1-1-0.1
		C69.5,42.4,69.1,42.4,69.6,42.5 M51.4,42.8c-0.3,0.2-0.4,0.3-0.3,0.3c0.1,0,0.4-0.2,0.7-0.3s0.4-0.3,0.3-0.3
		C52,42.5,51.7,42.7,51.4,42.8 M67.5,42.8c-0.5,0.3-0.4,0.3,0.4,0c0.3-0.1,0.4-0.2,0.3-0.2C68,42.5,67.7,42.6,67.5,42.8 M73.8,42.9
		c0.2,0.1,0.5,0.2,0.7,0.2c0.1,0,0-0.1-0.3-0.2C73.5,42.6,73.3,42.6,73.8,42.9 M49.6,43.5c-0.2,0.2-0.5,0.4-0.7,0.4
		c-0.3,0.1-0.3,0.1,0,0.1C49.1,44,49.5,43.8,49.6,43.5c0.3-0.1,0.4-0.3,0.4-0.3C49.9,43.2,49.8,43.3,49.6,43.5 M112.7,43.3
		c0.3,0,0.6,0,0.8,0s0-0.1-0.5-0.1C112.6,43.2,112.5,43.2,112.7,43.3 M54.4,45.2c0,0.6,0,0.8,0.1,0.5c0-0.3,0-0.8,0-1.1
		C54.4,44.3,54.4,44.6,54.4,45.2 M95,45.7c0,1.3,0.3,2,1,2c0.1,0-0.1-0.1-0.3-0.3C95.2,47,95.2,47,95,45.7l0-1.3L95,45.7 M81.3,46.1
		c0.3,0.2,0.6,0.4,0.7,0.4c0.2,0-0.9-0.8-1.1-0.8C80.8,45.7,81,45.9,81.3,46.1 M58,46.7c-0.5,0.5-0.4,0.6,0.1,0.1
		c0.3-0.2,0.5-0.4,0.5-0.4c0,0,0,0-0.1,0C58.5,46.3,58.2,46.5,58,46.7 M54.6,48.1c0.2,1.1,0.8,1.2,1.7,0.3c0.3-0.3,0.5-0.6,0.5-0.6
		c-0.1,0-0.3,0.2-0.6,0.5C55.5,49,55,48.9,54.6,48.1C54.5,47.6,54.5,47.6,54.6,48.1 M98.2,48.1c0.2,0,0.4,0,0.6,0
		c0.2,0,0-0.1-0.3-0.1S98,48.1,98.2,48.1 M64.5,49.1c0.3,0,0.6,0,0.8,0c0.2,0,0-0.1-0.5-0.1C64.5,49,64.3,49.1,64.5,49.1 M63.2,49.3
		c-0.2,0.1-0.2,0.1-0.1,0.1c0.1,0,0.4-0.1,0.6-0.1c0.2-0.1,0.2-0.1,0.1-0.1C63.7,49.2,63.4,49.3,63.2,49.3 M66.1,49.3
		c0.2,0.1,0.4,0.1,0.6,0.1c0.2,0,0.1-0.1-0.1-0.1c-0.2-0.1-0.4-0.1-0.6-0.1C65.8,49.2,65.9,49.2,66.1,49.3 M57.4,51.8
		c-0.9,0.8-0.7,0.7,0.2,0c0.4-0.3,0.6-0.6,0.6-0.6C58.1,51.2,57.8,51.4,57.4,51.8 M71,51.2c0,0,0.2,0.3,0.5,0.5l0.5,0.5l-0.5-0.5
		C71.1,51.2,71,51.1,71,51.2 M86.3,51.4c0,0.1,0.2,0.3,0.5,0.6l0.5,0.4l-0.4-0.5C86.6,51.6,86.4,51.4,86.3,51.4
		C86.4,51.3,86.3,51.4,86.3,51.4 M101.6,53.2c0,0.5,0,0.7,0.1,0.5c0-0.3,0-0.7,0-0.9C101.6,52.5,101.6,52.7,101.6,53.2 M38.5,53.2
		c0.3,0.2,0.6,0.4,0.7,0.4c0.1,0-0.1-0.2-0.5-0.4c-0.3-0.2-0.7-0.4-0.7-0.4C38,52.8,38.2,53,38.5,53.2 M55.2,67.3
		c0,7.2,0,10.1,0,6.5s0-9.5,0-13.1S55.2,60.1,55.2,67.3 M101.6,59.2c0,2.2,0,3.2,0.1,2c0-1.1,0-3,0-4.1
		C101.6,56,101.6,56.9,101.6,59.2 M42.5,56.4c0,0.1,0.1,0.4,0.3,0.7c0.2,0.3,0.3,0.5,0.3,0.4c0-0.1-0.2-0.4-0.3-0.7
		S42.5,56.3,42.5,56.4 M88.9,57.1c0.1,0.3,0.2,0.6,0.3,0.7c0.1,0.1,0.1-0.1,0-0.4C88.9,56.6,88.8,56.4,88.9,57.1 M43.2,86.1
		c0,15.7,0,22.1,0,14.2c0-7.9,0-20.7,0-28.5C43.3,64,43.2,70.4,43.2,86.1 M89.6,59.7c0,0.5,0,0.7,0.1,0.5c0-0.3,0-0.7,0-0.9
		C89.6,59,89.6,59.2,89.6,59.7 M76.4,59.8c0.1,0.1,0.2,0.4,0.2,0.7c0.1,0.4,0.1,0.4,0.1,0.1c0-0.2-0.1-0.5-0.2-0.7
		C76.4,59.7,76.4,59.7,76.4,59.8 M89.7,62.2c0,0.6,0,0.9,0.1,0.5c0-0.3,0-0.9,0-1.2C89.8,61.3,89.7,61.6,89.7,62.2 M76.8,61.8
		c0,0.1,0.1,0.4,0.2,0.6c0.3,0.3,0.3,0.3,0.1,0C77.1,62.2,77,62,77,61.8C76.9,61.6,76.9,61.6,76.8,61.8 M77.6,64.6
		c0,0.6,0,0.8,0.1,0.5c0-0.3,0-0.8,0-1C77.6,63.8,77.6,64,77.6,64.6 M89.7,66.3c0,0.6,0,0.8,0.1,0.5c0-0.3,0-0.8,0-1.1
		C89.8,65.5,89.7,65.7,89.7,66.3 M101.6,70.7c0,2.2,0,3,0.1,2s0-2.8,0-3.9S101.6,68.5,101.6,70.7 M77.9,67.7c0,0.2,0.1,0.6,0.1,0.8
		c0.2,0.6,0.2,0,0-0.8C77.9,67.3,77.9,67.3,77.9,67.7 M89.5,69.1c0,0.5,0,0.6,0.1,0.4c0-0.3,0-0.6,0-0.8
		C89.6,68.4,89.5,68.6,89.5,69.1 M78.2,69.5c0,0.3,0,0.5,0.1,0.3c0-0.2,0-0.4,0-0.6C78.2,69,78.2,69.2,78.2,69.5 M77.9,74
		c-0.1,0.7,0,0.8,0.1,0.1c0.1-0.3,0.1-0.6,0-0.6C78.1,73.5,78,73.7,77.9,74 M77.5,77c0,0.4,0,0.6,0.1,0.4c0-0.2,0-0.5,0-0.8
		C77.6,76.4,77.5,76.6,77.5,77 M87,77.7c-0.2,0.5-0.2,0.5,0,0.2c0.2-0.3,0.3-0.8,0.2-0.8C87.3,77.2,87.2,77.4,87,77.7 M101.7,78.4
		c0,0.5,0,0.6,0.1,0.4c0-0.3,0-0.6,0-0.8C101.7,77.8,101.7,78,101.7,78.4 M101.8,79.6c0,0.1,0.1,0.4,0.2,0.6
		c0.1,0.2,0.2,0.3,0.2,0.2c0-0.1-0.1-0.4-0.2-0.6C102,79.6,101.8,79.5,101.8,79.6 M84.3,82.4l-0.4,0.5L84.3,82.4
		c0.3-0.2,0.5-0.4,0.5-0.5C84.8,81.9,84.6,82.1,84.3,82.4 M102.5,81.9c0,0.1,0.1,0.4,0.3,0.7c0.4,0.7,0.4,0.4,0-0.3
		C102.7,82,102.5,81.8,102.5,81.9 M56.2,83.4c0,0.2,1,1.4,1,1.2c0-0.1-0.2-0.4-0.5-0.7S56.2,83.4,56.2,83.4 M81.5,85.5
		c-0.7,0.7-1.2,1.3-1.2,1.3c0.1,0,2.2-2.1,2.4-2.4C82.9,84,82.9,84.1,81.5,85.5 M105.6,87.4c0.1,0.2,0.3,0.5,0.6,0.7
		c0.4,0.3,0.4,0.3,0-0.2C105.5,87.1,105.4,87.1,105.6,87.4 M62.8,87.4c0,0,0.3,0.1,0.6,0.2c0.4,0.1,0.4,0.1,0.2-0.1
		C63.4,87.4,62.7,87.2,62.8,87.4 M65.7,88c0.5,0,1.4,0,1.8,0c0.5,0,0-0.1-1-0.1C65.6,87.9,65.2,87.9,65.7,88 M77.1,89
		c-0.2,0.2-0.3,0.3-0.1,0.2c0.1-0.1,0.4-0.3,0.6-0.4c0.2-0.1,0.2-0.2,0.1-0.2C77.6,88.7,77.3,88.8,77.1,89 M108.2,90
		c0.6,0.5,1.8,1.3,1.5,0.9c-0.1-0.2-0.5-0.4-0.7-0.5c-0.3-0.1-0.7-0.4-0.9-0.5C107.9,89.7,107.9,89.8,108.2,90 M55.8,90.7
		c0.2,0.1,0.5,0.2,0.5,0.2c0.1-0.1-0.4-0.4-0.7-0.4C55.5,90.5,55.6,90.6,55.8,90.7 M73.4,90.8c-0.3,0.2-0.4,0.3-0.3,0.3
		c0.1,0,0.4-0.1,0.7-0.3s0.4-0.3,0.3-0.3C74,90.5,73.7,90.7,73.4,90.8 M55.2,93.1c0,1,0,1.4,0.1,0.9c0-0.5,0-1.4,0-1.8
		C55.3,91.6,55.2,92.1,55.2,93.1 M58.6,91.6c0.4,0.3,1.3,0.5,1.6,0.4c0.1,0,0-0.1-0.2-0.1c-0.3,0-0.7-0.1-1.1-0.3
		C58.3,91.4,58.3,91.4,58.6,91.6 M71.1,91.6c-0.1,0.1-0.4,0.2-0.7,0.2C69.8,92,69.8,92,70.3,92c0.3,0,0.7-0.1,0.8-0.2
		c0.2-0.1,0.3-0.2,0.2-0.2C71.3,91.5,71.2,91.5,71.1,91.6 M61.7,92.1c0.2,0,0.4,0,0.6,0c0.2,0,0-0.1-0.3-0.1S61.5,92.1,61.7,92.1
		 M63.8,92.4c0.6,0.1,2.4,0.1,2.9,0c0.2-0.1-0.5-0.1-1.5-0.1C64.1,92.2,63.5,92.3,63.8,92.4 M55.3,113.6c0,0.4,0.3,1.5,0.4,1.4
		c0,0-0.1-0.4-0.2-0.9C55.5,113.6,55.4,113.4,55.3,113.6 M42.8,115.7c-0.1,0.3-0.3,0.6-0.3,0.7c0,0.1,0.1-0.1,0.3-0.4
		c0.2-0.3,0.3-0.6,0.3-0.7C43.1,115.2,43,115.4,42.8,115.7 M38,117.6c0.7,0,1.8,0,2.5,0c0.7,0,0.1-0.1-1.3-0.1
		C37.9,117.6,37.3,117.6,38,117.6 M63.3,118.5c0,0.1,0.1,0.2,0.2,0.3s0.2,0.6,0.2,1.2c0,1.7-0.4,2.1-2.1,2c-0.7-0.1-1,0-0.8,0
		c1,0.3,2.1,0.2,2.6-0.3c0.5-0.6,0.7-2.7,0.2-3.1C63.4,118.4,63.3,118.4,63.3,118.5 M35.9,119.9c0,0.7,0,1,0.1,0.6c0-0.4,0-1,0-1.3
		C35.9,118.9,35.9,119.2,35.9,119.9 M36.2,121.8c0.2,0.4,1.2,0.5,2.3,0.2c0.3-0.1,0-0.1-0.7,0C36.6,122,36.5,122,36.2,121.8
		C36,121.4,36,121.4,36.2,121.8 M40.4,121.8c0.6,0,1.7,0,2.3,0c0.7,0,0.2-0.1-1.1-0.1C40.3,121.7,39.8,121.8,40.4,121.8 M56.5,121.8
		c0.7,0,1.8,0,2.4,0c0.7,0,0.1-0.1-1.2-0.1C56.3,121.7,55.8,121.8,56.5,121.8"/>
</g>
</svg>
